<?xml version="1.0" encoding="UTF-8"?>
<svg version="1.1" xmlns="http://www.w3.org/2000/svg" width="983" height="401">
<path d="M0 0 C0.84135772 2.80534429 1.50394432 5.49494794 2.0859375 8.35546875 C2.26819382 9.20164764 2.45045013 10.04782654 2.63822937 10.91964722 C3.22860308 13.67329902 3.80186124 16.4302145 4.375 19.1875 C4.7741427 21.06396922 5.17445253 22.94019055 5.57592773 24.81616211 C6.36609029 28.51583654 7.15007271 32.21672597 7.92822266 35.91894531 C9.27241493 42.30761273 10.66544153 48.68519654 12.0625 55.0625 C12.70967018 58.04137874 13.3548591 61.02068098 14 64 C12.43674214 64.32424951 10.8728025 64.64521288 9.30859375 64.96484375 C8.43775146 65.14394287 7.56690918 65.32304199 6.66967773 65.50756836 C3.42631779 66.10581774 0.19317465 66.46194999 -3.08984375 66.75390625 C-5.21820752 66.96583892 -5.21820752 66.96583892 -8 68 C-9.64427919 68.50508743 -11.29027777 69.00459482 -12.9375 69.5 C-14.21947266 69.88671875 -14.21947266 69.88671875 -15.52734375 70.28125 C-21.44021739 72 -21.44021739 72 -24 72 C-23.40251953 73.30710938 -23.40251953 73.30710938 -22.79296875 74.640625 C-14.61243572 93.03189635 -11.63073383 111.0152902 -18.87890625 130.34375 C-19.83468845 132.61523238 -20.88587948 134.8019724 -22 137 C-22.43183594 137.87398437 -22.86367187 138.74796875 -23.30859375 139.6484375 C-25.77790007 144.42644486 -28.37562272 148.59803164 -31.875 152.6875 C-41.83108729 164.61565843 -47.75791762 179.83121156 -46.7890625 195.38671875 C-45.73955806 203.9114671 -43.60182842 209.56968722 -37.375 215.5 C-32.52701464 217.65466016 -28.22188536 217.76152495 -23 217 C-19.21434249 215.2423733 -17.53146072 213.74404501 -15.125 210.375 C-13.09822087 204.2946626 -12.95022894 198.54156677 -15.75 192.6875 C-16.97917002 190.43889928 -18.26873434 188.69394145 -19.96875 186.7578125 C-22.41081153 183.44224434 -23.58491522 180.08210731 -24.75 176.1875 C-24.97042969 175.51396484 -25.19085938 174.84042969 -25.41796875 174.14648438 C-28.50023188 164.14348757 -27.33533255 152.78184286 -22.7109375 143.37890625 C-21.25272695 141.12920708 -19.70684881 139.06660617 -18 137 C-17.43925781 136.30261719 -16.87851563 135.60523438 -16.30078125 134.88671875 C-6.44003677 123.1203023 3.11967743 118.08002932 18.4375 116.6875 C31.61741732 117.8436331 42.98072001 123.24942704 52 133 C59.70952264 142.96404563 65.17388017 155.51866015 63.59375 168.28125 C61.96440826 177.20383573 58.79787007 184.4019163 53.72265625 191.8828125 C50.48500493 196.83722555 50.20632517 201.27420299 51 207 C52.37494689 210.60105137 53.82382478 213.73130341 57 216 C62.76574339 218.42161222 67.27544349 218.22082606 73 216 C78.59020561 212.14896947 80.78053506 206.48382177 82 200 C82.4652567 192.34293268 82.25112403 184.66218059 82 177 C81.34 176.67 80.68 176.34 80 176 C79.39453125 174.3203125 79.39453125 174.3203125 78.8125 172.125 C76.7387812 165.46558344 72.94598013 158.94598013 68 154 C67.29289322 152.35008418 66.62056011 150.68437744 66 149 C65.34 149 64.68 149 64 149 C63.67 147.68 63.34 146.36 63 145 C62.34 145 61.68 145 61 145 C54.57575758 131.56565657 54.57575758 131.56565657 53 125 C52.49339844 123.46279297 52.49339844 123.46279297 51.9765625 121.89453125 C50.7110498 117.4629105 50.61612264 113.14898634 50.625 108.5625 C50.62661133 107.68940186 50.62822266 106.81630371 50.62988281 105.91674805 C50.84729009 94.2076608 53.76004396 83.47991207 59 73 C53.91856474 70.51574276 49.20141119 69.38222211 43.62890625 68.46484375 C40.3408141 67.88344261 37.2046612 66.93226508 34 66 C30.6746817 65.28392851 27.34105713 64.64075068 24 64 C24.33 59.38 24.66 54.76 25 50 C25.66 50 26.32 50 27 50 C26.79375 49.46375 26.5875 48.9275 26.375 48.375 C25.86626189 45.152992 26.95482017 43.08475598 28 40 C28.52740974 37.65766538 29.01579822 35.30632996 29.47265625 32.94921875 C29.60063095 32.2909761 29.72860565 31.63273346 29.86045837 30.95454407 C30.12875158 29.56911607 30.39504346 28.18329914 30.65942383 26.79711914 C31.05957768 24.70279484 31.46778671 22.61015804 31.87695312 20.51757812 C32.96587886 14.88938216 34.04164554 9.2895396 34.62109375 3.58203125 C35 0 35 0 36 -1 C78.82215863 -1.37366631 122.59547108 22.37667729 152.9609375 51.13671875 C154.86335432 53.04551768 154.86335432 53.04551768 157 54 C156.67 55.32 156.34 56.64 156 58 C155.34 58 154.68 58 154 58 C153.72760498 58.59458008 153.45520996 59.18916016 153.17456055 59.80175781 C152.02970512 61.94440556 150.87355302 63.42006637 149.20703125 65.171875 C148.65853516 65.75453125 148.11003906 66.3371875 147.54492188 66.9375 C146.97322266 67.535625 146.40152344 68.13375 145.8125 68.75 C142.32775852 72.42585332 138.87578678 76.11220898 135.5546875 79.9375 C131.90640454 84.13686009 128.12647219 88.20126262 124.3125 92.25 C123.66216797 92.94351563 123.01183594 93.63703125 122.34179688 94.3515625 C120.56717878 96.24014689 118.78482399 98.12106759 117 100 C116.22914063 100.81984375 115.45828125 101.6396875 114.6640625 102.484375 C113 104 113 104 111.0625 104 C107.34164938 102.19595121 104.65115763 99.87569475 102.1875 96.5625 C99.64399548 93.58296613 96.99854475 92.01195847 93.609375 90.11328125 C93.07828125 89.74589844 92.5471875 89.37851563 92 89 C92 88.34 92 87.68 92 87 C91.236875 86.79375 90.47375 86.5875 89.6875 86.375 C84.50101406 84.44105609 79.80966916 81.7214854 75 79 C67.88709679 93.91637955 66.25783492 108.62175982 70.78125 124.79296875 C73.92554161 133.31779386 79.07536811 140.81187576 84.9375 147.6875 C96.96487114 162.4760186 101.47418595 180.07463977 100 199 C98.47700043 209.66099702 96.26783468 218.71643135 88 226 C87.05125 226.86625 86.1025 227.7325 85.125 228.625 C81.7753219 231.17075535 78.90572804 232.51582334 75 234 C83.11741382 234.44546783 89.07139655 234.40472702 96 230 C97.32719189 229.32118934 98.65912535 228.6513658 100 228 C100 227.34 100 226.68 100 226 C100.66 225.67 101.32 225.34 102 225 C102.33 224.01 102.66 223.02 103 222 C103.66 222 104.32 222 105 222 C108.5426143 209.91715478 108.21446478 199.42657711 107 187 C107.66 187 108.32 187 109 187 C109.33 183.37 109.66 179.74 110 176 C110.66 176 111.32 176 112 176 C112.14888672 174.89785156 112.14888672 174.89785156 112.30078125 173.7734375 C113.69769823 168.23259361 117.95507737 163.90041946 122.74853516 160.90869141 C126.73020747 158.71328568 130.83518893 156.81918012 135 155 C132.37129418 144.52500561 128.55320423 135.00438487 123.953125 125.25 C123 123 123 123 123 121 C122.34 120.67 121.68 120.34 121 120 C120 117 120 117 120 114 C120.50635986 113.77973145 121.01271973 113.55946289 121.53442383 113.33251953 C136.11476507 106.95904752 150.22264511 99.95554563 164.0859375 92.14453125 C164.91013184 91.68103271 165.73432617 91.21753418 166.58349609 90.73999023 C168.16058966 89.84915066 169.73403216 88.95180719 171.30322266 88.04711914 C172.00753418 87.6474292 172.7118457 87.24773926 173.4375 86.8359375 C174.05496094 86.48063965 174.67242187 86.1253418 175.30859375 85.75927734 C177 85 177 85 180 85 C199.24476501 122.07370262 217.80967737 169.45287769 210 212 C203.54393567 212.82334424 197.25516243 213.15850401 190.75 213.125 C189.82179443 213.12306641 188.89358887 213.12113281 187.93725586 213.11914062 C182.12037564 213.08262983 176.39715995 212.76961099 170.60546875 212.21875 C164.54998622 211.85135344 158.488351 211.96084807 152.42407227 212.03710938 C151.05013306 212.04967773 151.05013306 212.04967773 149.6484375 212.0625 C148.82520996 212.07410156 148.00198242 212.08570313 147.15380859 212.09765625 C145 212 145 212 142 211 C141.41621056 203.55668469 140.93827961 196.21978589 141.0625 188.75 C141.12525602 182.62780205 140.36212145 176.95928133 139 171 C135.9254644 171.7763932 135.9254644 171.7763932 134 174 C133.195625 174.7425 132.39125 175.485 131.5625 176.25 C125.4309295 182.830222 125.71565804 188.50823015 126 197.0625 C126.23122436 212.39157417 124.57406355 225.7340187 114 237.75 C106.60226282 244.55723045 95.94699478 249.1028818 86 250 C85.1028125 250.10441406 84.205625 250.20882812 83.28125 250.31640625 C72.8633438 250.97452667 63.10176771 246.78307181 54 242 C54 241.34 54 240.68 54 240 C53.41863281 239.73703125 52.83726562 239.4740625 52.23828125 239.203125 C42.52146133 233.98012232 37.28814654 223.23601898 34.0859375 213.109375 C31.29690701 200.39139595 34.18388653 190.33481205 40 179 C40.33 178.01 40.66 177.02 41 176 C41.66 175.67 42.32 175.34 43 175 C45.92950914 167.35072612 46.1922039 159.38063677 42.90625 151.8046875 C39.26152647 144.54666047 34.32686812 138.9879981 26.625 136.125 C18.85788574 133.91334713 11.25146682 134.28129907 4 138 C-2.56132621 142.74312738 -6.67019481 149.72182262 -8.6328125 157.51171875 C-10.13301565 167.67798902 -6.01032753 175.56590819 -0.86938477 184.00292969 C4.64765825 193.11383497 5.33615514 202.00718808 3.34765625 212.4140625 C-0.24746897 225.34416953 -7.30279435 235.96772508 -19.03125 242.75390625 C-29.34631501 248.05186662 -38.45058772 250.20144324 -50 250 C-50.99 250 -51.98 250 -53 250 C-64.24533296 246.57750736 -73.90996568 241.52723362 -81 232 C-81.66 231.34 -82.32 230.68 -83 230 C-88.12208602 222.65092005 -89.46962203 214.64682509 -89.75 205.875 C-89.81380859 204.59302734 -89.81380859 204.59302734 -89.87890625 203.28515625 C-90.03769055 199.45669034 -90.00083097 196.00569393 -89.4453125 192.19921875 C-88.68970068 186.77074438 -90.32923039 181.82200661 -93.10546875 177.1328125 C-95.87657992 173.52767759 -98.96777202 171.90766096 -103 170 C-104.30064871 183.69659193 -105.33658532 197.23740043 -105 211 C-114.69468868 211.97120316 -124.28199582 212.04432018 -134.01416016 211.97827148 C-143.03591053 211.9411921 -152.01999455 212.25645098 -161.02856445 212.73242188 C-162.0155835 212.78076172 -163.00260254 212.82910156 -164.01953125 212.87890625 C-164.88682861 212.9260376 -165.75412598 212.97316895 -166.64770508 213.02172852 C-168.9431206 213.0005254 -170.80960827 212.65835252 -173 212 C-173.09767223 195.66160594 -173.14278588 179.08150667 -170 163 C-169.68234067 161.26715633 -169.36606304 159.53405908 -169.05078125 157.80078125 C-165.83908186 140.38793513 -165.83908186 140.38793513 -164 135 C-163.34 134.67 -162.68 134.34 -162 134 C-162.0825 133.21625 -162.165 132.4325 -162.25 131.625 C-161.9658348 127.50460456 -160.80370242 124.64670947 -159.19140625 120.8828125 C-157.89790487 117.75296326 -156.82852762 114.58499068 -155.75 111.375 C-152.88118151 103.21679742 -148.99559204 95.65510625 -145 88 C-144.67 87.34 -144.34 86.68 -144 86 C-140.56789511 86.57702968 -137.76543347 87.43298685 -134.6640625 89.00390625 C-133.85517578 89.41068604 -133.04628906 89.81746582 -132.21289062 90.23657227 C-131.35888672 90.67412842 -130.50488281 91.11168457 -129.625 91.5625 C-128.73232422 92.01359131 -127.83964844 92.46468262 -126.91992188 92.92944336 C-121.73504735 95.56137115 -116.60443032 98.278718 -111.5 101.0625 C-102.59224731 105.91775581 -93.28809873 109.93565855 -84 114 C-84 118.6457082 -85.53074397 121.52905718 -87.5625 125.5625 C-92.07957621 134.79910696 -95.59553861 144.30792398 -99 154 C-98.04738281 154.51949219 -97.09476562 155.03898438 -96.11328125 155.57421875 C-94.84610841 156.27820366 -93.57919502 156.98265572 -92.3125 157.6875 C-91.37374023 158.19700195 -91.37374023 158.19700195 -90.41601562 158.71679688 C-81.6918746 163.60414289 -76.0868032 170.63205003 -73.1875 180.1875 C-71.65187758 186.87598875 -71.80520931 193.5293025 -72.0222168 200.3503418 C-72.289055 210.60482808 -70.5871369 219.10617062 -63.36328125 226.7265625 C-57.20093583 232.3488372 -50.33329741 234.93211163 -42 235 C-41.34 234.67 -40.68 234.34 -40 234 C-40.78246094 233.60167969 -41.56492188 233.20335937 -42.37109375 232.79296875 C-43.38300781 232.26316406 -44.39492187 231.73335937 -45.4375 231.1875 C-46.95150391 230.40439453 -46.95150391 230.40439453 -48.49609375 229.60546875 C-51 228 -51 228 -52 225 C-52.66 225 -53.32 225 -54 225 C-58 219.58823529 -58 219.58823529 -58 217 C-58.66 216.67 -59.32 216.34 -60 216 C-60.73519522 214.02416285 -61.39072482 212.01822402 -62 210 C-62.350625 209.05125 -62.70125 208.1025 -63.0625 207.125 C-65.76994602 198.10017992 -64.76323758 189.24471515 -64 180 C-63.938125 179.15308594 -63.87625 178.30617187 -63.8125 177.43359375 C-63.12268118 170.08989754 -59.58307558 163.99955813 -55.9375 157.75 C-55.4105957 156.83347656 -55.4105957 156.83347656 -54.87304688 155.8984375 C-53.31934581 153.2080969 -51.72395895 150.58593843 -50 148 C-49.34 148 -48.68 148 -48 148 C-47.76023437 147.4740625 -47.52046875 146.948125 -47.2734375 146.40625 C-45.95119458 143.90777871 -44.4170979 141.61496831 -42.82617188 139.28125 C-34.11702401 126.36622097 -30.33770426 113.103379 -32.875 97.4375 C-33.23265909 95.62149856 -33.60648112 93.80856964 -34 92 C-34.14695313 91.08347656 -34.29390625 90.16695313 -34.4453125 89.22265625 C-34.62835938 88.48917969 -34.81140625 87.75570312 -35 87 C-35.66 86.67 -36.32 86.34 -37 86 C-37.72693904 84.02111039 -38.39816251 82.02045442 -39 80 C-50.74499473 83.61384453 -59.97004804 91.54984956 -69.08984375 99.484375 C-71.67974792 101.72316464 -74.31175641 103.88108977 -77 106 C-77.33 105.01 -77.66 104.02 -78 103 C-78.66 103 -79.32 103 -80 103 C-85 97.52380952 -85 97.52380952 -85 95 C-85.66 95 -86.32 95 -87 95 C-88.74615277 93.04219235 -90.37044153 91.05363634 -92 89 C-93.49792648 87.1649721 -94.99809562 85.33177356 -96.5 83.5 C-97.27601562 82.55125 -98.05203125 81.6025 -98.8515625 80.625 C-102.98061808 75.44397082 -102.98061808 75.44397082 -107.4453125 70.5625 C-109.60189743 68.39507796 -111.53161421 66.05620812 -113.5 63.71875 C-114.95797706 61.99112921 -114.95797706 61.99112921 -116.5625 60.53125 C-118.16768091 58.82138338 -119.04497812 57.13043343 -120 55 C-104.93889337 40.94528068 -88.44656981 28.29351296 -70 19 C-69.37802734 18.67177246 -68.75605469 18.34354492 -68.11523438 18.00537109 C-50.47779633 8.73280865 -31.49493008 3.2613114 -12 -0.625 C-10.69216553 -0.89050659 -10.69216553 -0.89050659 -9.35791016 -1.16137695 C-3.37435549 -2.24957032 -3.37435549 -2.24957032 0 0 Z M-26 17 C-24.68 21.62 -23.36 26.24 -22 31 C-14.73489155 29.7832915 -14.73489155 29.7832915 -8 27 C-8.47488898 25.01980257 -8.95502859 23.04086365 -9.4375 21.0625 C-9.70433594 19.96035156 -9.97117188 18.85820313 -10.24609375 17.72265625 C-10.72995725 15.10578746 -10.72995725 15.10578746 -12 14 C-17.03861892 13.37017264 -21.32969685 15.32705559 -26 17 Z M47 14 C44.94651367 18.54700545 44.01611983 23.13714083 43 28 C47.29 28.99 51.58 29.98 56 31 C56.474375 29.081875 56.94875 27.16375 57.4375 25.1875 C58.20682713 22.07674246 58.98651324 19.04046027 60 16 C53.59784929 14.2505382 53.59784929 14.2505382 47 14 Z M66 18 C65.49363393 19.74816858 64.99515381 21.49862263 64.5 23.25 C64.2215625 24.22453125 63.943125 25.1990625 63.65625 26.203125 C62.84771134 29.17023413 62.84771134 29.17023413 63 33 C66.63 34.32 70.26 35.64 74 37 C77.19610552 33.80389448 77.87046085 32.03610832 79.1875 27.8125 C79.53167969 26.72582031 79.87585938 25.63914062 80.23046875 24.51953125 C80.61138672 23.27236328 80.61138672 23.27236328 81 22 C79.43840941 21.51787786 77.87568072 21.03944127 76.3125 20.5625 C75.44238281 20.29566406 74.57226562 20.02882813 73.67578125 19.75390625 C71.12974079 19.03655471 68.5996577 18.482459 66 18 Z M-40.1875 20.5 C-41.53908203 20.91765625 -41.53908203 20.91765625 -42.91796875 21.34375 C-43.60503906 21.5603125 -44.29210937 21.776875 -45 22 C-44.52412884 28.02770138 -41.80277043 32.76678289 -39 38 C-37.5410574 37.52269162 -36.08286504 37.04308958 -34.625 36.5625 C-33.81289062 36.29566406 -33.00078125 36.02882813 -32.1640625 35.75390625 C-29.98968201 35.04820271 -29.98968201 35.04820271 -28 34 C-29.0681847 28.88634986 -30.23107476 23.92772031 -32 19 C-35.09875672 19 -37.24421515 19.58261252 -40.1875 20.5 Z M87 25 C86.16013916 26.93467942 85.32831973 28.87285129 84.5 30.8125 C84.0359375 31.89144531 83.571875 32.97039063 83.09375 34.08203125 C81.82450697 36.94882024 81.82450697 36.94882024 82 40 C83.62249941 40.83819158 85.24808497 41.6704116 86.875 42.5 C88.23238281 43.19609375 88.23238281 43.19609375 89.6171875 43.90625 C91.86596859 45.13905589 91.86596859 45.13905589 94 45 C96.31 40.38 98.62 35.76 101 31 C96.40016337 27.65700283 96.40016337 27.65700283 92 28 C92 27.34 92 26.68 92 26 C90.35 25.67 88.7 25.34 87 25 Z M-59.5625 28.5 C-60.17802734 28.83386719 -60.79355469 29.16773438 -61.42773438 29.51171875 C-62.95283109 30.33929061 -64.47654502 31.1694098 -66 32 C-64.88222229 34.31625061 -63.75625908 36.62784605 -62.625 38.9375 C-62.30789062 39.59685547 -61.99078125 40.25621094 -61.6640625 40.93554688 C-60.04522631 44.61304807 -60.04522631 44.61304807 -57 47 C-54.28873335 45.77667094 -54.28873335 45.77667094 -51.375 44.0625 C-49.60125 43.051875 -47.8275 42.04125 -46 41 C-47.98 35.72 -49.96 30.44 -52 25 C-54.51023167 25 -57.34315585 27.28859824 -59.5625 28.5 Z M-13.6875 36.5 C-14.49574219 36.7784375 -15.30398437 37.056875 -16.13671875 37.34375 C-16.75160156 37.5603125 -17.36648437 37.776875 -18 38 C-16.83348574 43.92863717 -15.24480642 49.38798394 -13 55 C-9.7 54.34 -6.4 53.68 -3 53 C-1.95725535 47.78627676 -2.31245584 46.06263248 -3.9375 41.1875 C-4.31777344 40.02605469 -4.69804687 38.86460938 -5.08984375 37.66796875 C-5.54037109 36.34732422 -5.54037109 36.34732422 -6 35 C-9.01490557 35 -10.86864114 35.51952735 -13.6875 36.5 Z M42 35 C41.32873871 37.4363189 40.66283646 39.87388883 40 42.3125 C39.80921875 43.00279297 39.6184375 43.69308594 39.421875 44.40429688 C38.62283816 47.35787949 38 49.92559219 38 53 C41.63 53.66 45.26 54.32 49 55 C49.45375 53.30875 49.9075 51.6175 50.375 49.875 C51.46544194 45.86982227 52.62334865 41.91816154 54 38 C48.06 36.515 48.06 36.515 42 35 Z M107 35 C105.1342572 37.33102164 105.1342572 37.33102164 103.3125 40.25 C102.66925781 41.22453125 102.02601563 42.1990625 101.36328125 43.203125 C99.8465849 45.80390656 99.8465849 45.80390656 99.984375 48.15234375 C101.45095879 50.82039811 103.32122097 51.79978773 105.9375 53.3125 C107.28134766 54.11107422 107.28134766 54.11107422 108.65234375 54.92578125 C109.81443359 55.45751953 109.81443359 55.45751953 111 56 C111.66 55.67 112.32 55.34 113 55 C113 54.01 113 53.02 113 52 C113.66 52 114.32 52 115 52 C116.58969247 49.98208664 116.58969247 49.98208664 118.125 47.5 C118.66382813 46.6646875 119.20265625 45.829375 119.7578125 44.96875 C120.16773438 44.3190625 120.57765625 43.669375 121 43 C114.68686341 37.44207678 114.68686341 37.44207678 107 35 Z M-79.1875 39 C-80.53908203 39.8353125 -80.53908203 39.8353125 -81.91796875 40.6875 C-82.60503906 41.120625 -83.29210937 41.55375 -84 42 C-82.87540329 43.77108948 -81.75030797 45.54186236 -80.625 47.3125 C-79.99851562 48.29863281 -79.37203125 49.28476563 -78.7265625 50.30078125 C-77.50348387 52.21287929 -76.2590644 54.1114034 -75 56 C-70.89041233 54.54955729 -67.56741255 52.48889248 -64 50 C-64.25394531 49.49210937 -64.50789063 48.98421875 -64.76953125 48.4609375 C-66.84635417 44.30729167 -68.92317708 40.15364583 -71 36 C-74.67034745 36 -76.0999431 37.0752892 -79.1875 39 Z M60 40 C59.32635339 42.08108685 58.66133202 44.1649671 58 46.25 C57.62875 47.41015625 57.2575 48.5703125 56.875 49.765625 C55.82590405 53.0850928 55.82590405 53.0850928 56 57 C60.95 57.99 60.95 57.99 66 59 C70.16344963 51.39724214 70.16344963 51.39724214 72 43 C70.56445975 42.49440092 69.1264798 41.9957251 67.6875 41.5 C66.88699219 41.2215625 66.08648437 40.943125 65.26171875 40.65625 C62.91230578 39.86066893 62.91230578 39.86066893 60 40 Z M-32.6875 43 C-34.110625 43.66 -35.53375 44.32 -37 45 C-35.02 49.95 -33.04 54.9 -31 60 C-29.55625 59.71125 -28.1125 59.4225 -26.625 59.125 C-25.40683594 58.88136719 -25.40683594 58.88136719 -24.1640625 58.6328125 C-21.81326077 58.13341068 -21.81326077 58.13341068 -20 56 C-20.26728594 50.52063832 -22.67346906 45.86948337 -25 41 C-28.23655184 41 -29.78752639 41.6550847 -32.6875 43 Z M79 46 C77.96486753 48.0762657 76.94733789 50.16131479 75.9375 52.25 C75.36902344 53.41015625 74.80054688 54.5703125 74.21484375 55.765625 C72.82032368 58.79176894 72.82032368 58.79176894 73.171875 61.33984375 C73.92890481 63.24394165 73.92890481 63.24394165 76.3125 64.3125 C79.20284824 65.05189141 80.26659145 65.06239903 83 64 C84.52453972 62.34025477 84.52453972 62.34025477 85.6875 60.25 C86.31205078 59.23679687 86.31205078 59.23679687 86.94921875 58.203125 C88.28606565 55.63185599 88.28606565 55.63185599 89 51 C85.7 49.35 82.4 47.7 79 46 Z M-95.5625 51 C-96.57441406 51.7425 -97.58632812 52.485 -98.62890625 53.25 C-99.80259766 54.11625 -99.80259766 54.11625 -101 55 C-99.65070536 58.83663072 -97.92248975 61.65172569 -95.375 64.8125 C-94.74335937 65.60269531 -94.11171875 66.39289063 -93.4609375 67.20703125 C-92.97882813 67.79871094 -92.49671875 68.39039062 -92 69 C-89.00779732 67.63629701 -86.70973471 66.05091917 -84.25 63.875 C-83.63640625 63.33617188 -83.0228125 62.79734375 -82.390625 62.2421875 C-81.93171875 61.83226562 -81.4728125 61.42234375 -81 61 C-81.53648235 56.80500604 -82.85362017 54.45751442 -85.5 51.1875 C-86.44359375 50.00220703 -86.44359375 50.00220703 -87.40625 48.79296875 C-87.9321875 48.20128906 -88.458125 47.60960937 -89 47 C-91.24840825 47 -93.87500244 49.75862248 -95.5625 51 Z M-47.26171875 48.99609375 C-48.46248047 49.70958984 -48.46248047 49.70958984 -49.6875 50.4375 C-50.89986328 51.14712891 -50.89986328 51.14712891 -52.13671875 51.87109375 C-52.75160156 52.24363281 -53.36648437 52.61617187 -54 53 C-52.23104283 57.98524294 -49.6020365 62.4121988 -47 67 C-43.7 65.35 -40.4 63.7 -37 62 C-37.75682346 59.84918551 -38.53089087 57.70443181 -39.3125 55.5625 C-39.74175781 54.36753906 -40.17101562 53.17257813 -40.61328125 51.94140625 C-41.07089844 50.97074219 -41.52851563 50.00007813 -42 49 C-44.90841521 47.657319 -44.90841521 47.657319 -47.26171875 48.99609375 Z M126 48 C124.6578508 49.59679804 123.32652885 51.20270197 122 52.8125 C121.2575 53.70582031 120.515 54.59914063 119.75 55.51953125 C117.71175945 57.90261209 117.71175945 57.90261209 118 61 C119.91873305 63.13867007 119.91873305 63.13867007 122.375 65.1875 C123.18710937 65.90292969 123.99921875 66.61835937 124.8359375 67.35546875 C126.81239278 69.20168228 126.81239278 69.20168228 129 69 C129.66 68.01 130.32 67.02 131 66 C131.53625 65.319375 132.0725 64.63875 132.625 63.9375 C134.19291567 62.12413466 134.19291567 62.12413466 134 60 C134.99 59.67 135.98 59.34 137 59 C137.33 58.01 137.66 57.02 138 56 C136.94512267 55.03328244 135.88066719 54.07701255 134.8125 53.125 C134.22082031 52.59132813 133.62914062 52.05765625 133.01953125 51.5078125 C130.78401927 49.83874553 128.61894321 48.9317829 126 48 Z M96 55 C94.79746184 56.90726751 93.61341051 58.8262012 92.4375 60.75 C91.77621094 61.81734375 91.11492187 62.8846875 90.43359375 63.984375 C88.83125228 66.78225778 88.83125228 66.78225778 89.03125 69.25 C90.32849551 71.59341125 91.63443169 72.17085853 94.0625 73.25 C96.0115625 74.11625 96.0115625 74.11625 98 75 C100.97 71.04 103.94 67.08 107 63 C102.9565569 58.9565569 100.93270155 57.1795658 96 55 Z M-63.82421875 57.77734375 C-64.43910156 58.16019531 -65.05398437 58.54304688 -65.6875 58.9375 C-66.780625 59.618125 -67.87375 60.29875 -69 61 C-68.44010697 64.99012371 -67.24330232 67.5255052 -64.9375 70.8125 C-64.38964844 71.60269531 -63.84179688 72.39289063 -63.27734375 73.20703125 C-62.85582031 73.79871094 -62.43429688 74.39039062 -62 75 C-58.06326356 73.68775452 -55.77280706 72.08089673 -53 69 C-53.92574392 67.18146744 -54.86598995 65.37031117 -55.8125 63.5625 C-56.33457031 62.55316406 -56.85664062 61.54382813 -57.39453125 60.50390625 C-59.2001417 57.68785686 -60.49206185 56.35743107 -63.82421875 57.77734375 Z M112 66 C110.63053378 67.73805341 109.27984046 69.49091233 107.9375 71.25 C107.18339844 72.22453125 106.42929687 73.1990625 105.65234375 74.203125 C103.74089924 76.80220662 103.74089924 76.80220662 104.25390625 79.359375 C104.50011719 79.90078125 104.74632812 80.4421875 105 81 C105.66 81 106.32 81 107 81 C107 81.66 107 82.32 107 83 C109.46326712 84.6446674 109.46326712 84.6446674 112 86 C112.2475 85.38125 112.495 84.7625 112.75 84.125 C114 82 114 82 115.875 81.125 C118.97886464 79.48177754 120.20693774 76.94574515 122 74 C121.34 73.01 120.68 72.02 120 71 C119.01 71 118.02 71 117 71 C116.5978125 70.0409375 116.5978125 70.0409375 116.1875 69.0625 C115.11332248 66.66868314 115.11332248 66.66868314 112 66 Z M-81.625 70.5 C-82.44226563 71.1496875 -83.25953125 71.799375 -84.1015625 72.46875 C-84.72804688 72.9740625 -85.35453125 73.479375 -86 74 C-84.55575365 77.23861303 -82.74227753 79.61969163 -80.375 82.25 C-79.42753906 83.30960938 -79.42753906 83.30960938 -78.4609375 84.390625 C-77.97882813 84.92171875 -77.49671875 85.4528125 -77 86 C-73.44774296 84.28564986 -70.25978366 82.22257977 -67 80 C-68.55240237 75.03231242 -71.51054781 70.82132943 -75 67 C-77.99486237 67 -79.32026933 68.65621546 -81.625 70.5 Z M165.375 106.5 C164.76398438 106.83386719 164.15296875 107.16773437 163.5234375 107.51171875 C162.01358199 108.33742098 160.50652152 109.16823037 159 110 C159.59024148 111.65087847 160.19766006 113.29562407 160.8125 114.9375 C161.14894531 115.85402344 161.48539062 116.77054688 161.83203125 117.71484375 C162.83409094 120.3340424 162.83409094 120.3340424 166 121 C169.01134647 120.01881435 169.01134647 120.01881435 172.1875 118.5625 C173.27417969 118.08941406 174.36085938 117.61632812 175.48046875 117.12890625 C176.31191406 116.75636719 177.14335937 116.38382813 178 116 C178 112.12049035 177.59216239 110.63334507 176 107.25 C175.62875 106.45078125 175.2575 105.6515625 174.875 104.828125 C174.58625 104.22484375 174.2975 103.6215625 174 103 C170.74085881 103 168.16669851 104.95502155 165.375 106.5 Z M-138 104 C-139.65 107.63 -141.3 111.26 -143 115 C-140.73392948 116.03275341 -138.46318061 117.05133551 -136.1875 118.0625 C-135.54490234 118.35705078 -134.90230469 118.65160156 -134.24023438 118.95507812 C-130.2369489 120.81228081 -130.2369489 120.81228081 -126 120 C-124.97299556 117.67108904 -124.97299556 117.67108904 -124.3125 114.9375 C-124.06113281 114.01839844 -123.80976562 113.09929687 -123.55078125 112.15234375 C-123.36902344 111.44207031 -123.18726562 110.73179688 -123 110 C-124.74404788 108.98965502 -126.49549561 107.99207578 -128.25 107 C-129.22453125 106.443125 -130.1990625 105.88625 -131.203125 105.3125 C-134.08859689 103.71678496 -134.08859689 103.71678496 -138 104 Z M-117 114 C-118.32 117.3 -119.64 120.6 -121 124 C-118.7101766 125.0044134 -116.4183401 126.00367612 -114.125 127 C-113.47402344 127.28617188 -112.82304688 127.57234375 -112.15234375 127.8671875 C-108.70361661 129.45925765 -108.70361661 129.45925765 -105 130 C-103.68 127.36 -102.36 124.72 -101 122 C-103.73647359 119.26352641 -105.60875357 117.99298372 -109 116.3125 C-109.86625 115.87550781 -110.7325 115.43851562 -111.625 114.98828125 C-114.03289224 113.80790798 -114.03289224 113.80790798 -117 114 Z M144.4375 116.5 C143.72658203 116.83386719 143.01566406 117.16773438 142.28320312 117.51171875 C140.52133415 118.33944243 138.7605644 119.16950512 137 120 C137.66241789 123.55079859 138.57481771 126.67457466 140 130 C146.27627186 129.49111309 151.38826776 126.6689946 157 124 C155.68 120.37 154.36 116.74 153 113 C150.23684216 113 146.9686517 115.30479801 144.4375 116.5 Z M-146 122 C-146.99 125.96 -147.98 129.92 -149 134 C-143.54873741 136.23891142 -138.86809507 137.47606294 -133 138 C-132.49632243 136.54293274 -131.99717444 135.08429904 -131.5 133.625 C-131.2215625 132.81289062 -130.943125 132.00078125 -130.65625 131.1640625 C-129.90326695 129.05790758 -129.90326695 129.05790758 -130 127 C-132.10171867 126.1605118 -134.20646625 125.32860344 -136.3125 124.5 C-137.48425781 124.0359375 -138.65601563 123.571875 -139.86328125 123.09375 C-142.91846448 121.83537487 -142.91846448 121.83537487 -146 122 Z M166 128 C167.32 131.63 168.64 135.26 170 139 C171.7325 138.71125 173.465 138.4225 175.25 138.125 C176.22453125 137.96257812 177.1990625 137.80015625 178.203125 137.6328125 C180.81721414 137.04135658 182.76391137 136.46679208 185 135 C186.23593891 131.29218328 185.5678132 130.32489747 184.0625 126.8125 C183.68222656 125.91144531 183.30195313 125.01039063 182.91015625 124.08203125 C182.60980469 123.39496094 182.30945313 122.70789063 182 122 C177.08788253 122 170.50555737 126.02881865 166 128 Z M-123 130 C-123.50615298 131.26839526 -124.00469099 132.53983102 -124.5 133.8125 C-124.7784375 134.52019531 -125.056875 135.22789062 -125.34375 135.95703125 C-126.1529162 138.11841216 -126.1529162 138.11841216 -126 141 C-124.08594633 141.67413211 -122.16863974 142.3390332 -120.25 143 C-119.18265625 143.37125 -118.1153125 143.7425 -117.015625 144.125 C-113.88307438 145.18577477 -113.88307438 145.18577477 -110 145 C-108.40870506 141.64035773 -108.40870506 141.64035773 -108.10546875 137.99609375 C-109.44725688 135.00197264 -111.40303165 134.54887003 -114.375 133.3125 C-115.35210937 132.89613281 -116.32921875 132.47976562 -117.3359375 132.05078125 C-119.2038534 131.31402263 -121.09507723 130.63497426 -123 130 Z M153.125 132.8125 C151.52011719 133.31716797 151.52011719 133.31716797 149.8828125 133.83203125 C146.71120529 134.89895194 146.71120529 134.89895194 144 138 C144.99 140.64 145.98 143.28 147 146 C152.96564796 145.49228528 157.63809899 143.61407872 163 141 C162.39009109 137.44219804 161.4216319 134.3171411 160 131 C157.69988864 131 155.27890951 132.12293904 153.125 132.8125 Z M-151 141 C-151.495 142.19625 -151.99 143.3925 -152.5 144.625 C-152.7784375 145.29789063 -153.056875 145.97078125 -153.34375 146.6640625 C-154.27046583 149.55833469 -154.27046583 149.55833469 -154 155 C-148.72 155.99 -143.44 156.98 -138 158 C-137.505 156.5975 -137.01 155.195 -136.5 153.75 C-136.2215625 152.96109375 -135.943125 152.1721875 -135.65625 151.359375 C-134.82135139 148.76587262 -134.82135139 148.76587262 -135 145 C-135.56589844 144.86722656 -136.13179687 144.73445312 -136.71484375 144.59765625 C-139.8336074 143.7819796 -142.84003579 142.69212904 -145.87890625 141.62109375 C-148.11149169 140.85949107 -148.11149169 140.85949107 -151 141 Z M188 142 C184.91538694 142.39019229 184.91538694 142.39019229 181.5 143.3125 C179.75203125 143.73982422 179.75203125 143.73982422 177.96875 144.17578125 C175.100199 144.87004901 175.100199 144.87004901 173 146 C173.66 149.96 174.32 153.92 175 158 C180.95908314 157.51021234 186.3183775 156.85270299 192 155 C191.71812064 153.20676747 191.4241719 151.41542874 191.125 149.625 C190.88136719 148.12839844 190.88136719 148.12839844 190.6328125 146.6015625 C190.2041198 143.8574885 190.2041198 143.8574885 188 142 Z M-128 148 C-129.485 153.445 -129.485 153.445 -131 159 C-125.86059274 160.24591691 -121.3212582 161.27288504 -116 161 C-114.34560829 158.02209492 -113.61449997 155.33822957 -113 152 C-114.93558599 151.32779649 -116.87354372 150.66241923 -118.8125 150 C-120.43091797 149.443125 -120.43091797 149.443125 -122.08203125 148.875 C-124.97120802 147.85638488 -124.97120802 147.85638488 -128 148 Z M153 152 C152.01 152.33 151.02 152.66 150 153 C150.66 155.97 151.32 158.94 152 162 C157.95908314 161.51021234 163.3183775 160.85270299 169 159 C168.34 156.03 167.68 153.06 167 150 C161.8468268 148.17145467 157.84701577 150.16648467 153 152 Z M-156 162 C-156.33 163.19625 -156.66 164.3925 -157 165.625 C-157.185625 166.29789063 -157.37125 166.97078125 -157.5625 167.6640625 C-158.18409005 170.586817 -158.18409005 170.586817 -158 176 C-152.72 176.33 -147.44 176.66 -142 177 C-140.59379814 172.78139441 -139.61620078 169.31340543 -139 165 C-144.56069582 162.74566386 -150.0785651 162.40038172 -156 162 Z M177 165 C177.66 169.29 178.32 173.58 179 178 C179.66 177.67 180.32 177.34 181 177 C184.05513081 176.92966605 187.0971815 177.00310438 190.15234375 177.0625 C193.07655696 177.13855605 193.07655696 177.13855605 196 176 C195.34 171.71 194.68 167.42 194 163 C188.08316658 163 182.65059741 163.11646753 177 165 Z M-132 166 C-133.70572284 170.47752245 -134 172.98367082 -134 178 C-129.05 178.33 -124.1 178.66 -119 179 C-117.0044484 175.00889681 -116.80453935 173.30013434 -117 169 C-122.0056546 167.68272247 -126.86496656 166.64187918 -132 166 Z M164.64453125 166.4609375 C162.74767578 166.91339844 162.74767578 166.91339844 160.8125 167.375 C158.90404297 167.81972656 158.90404297 167.81972656 156.95703125 168.2734375 C155.98121094 168.51320312 155.00539063 168.75296875 154 169 C153.92377142 172.96388638 154.0318352 176.1273408 155 180 C163.415 179.01 163.415 179.01 172 178 C171.896875 176.39125 171.79375 174.7825 171.6875 173.125 C171.62949219 172.22007812 171.57148438 171.31515625 171.51171875 170.3828125 C170.61444687 166.20467624 168.57730388 165.92069632 164.64453125 166.4609375 Z M-159 183 C-160.32972073 187.98645274 -160.06829634 192.87777466 -160 198 C-154.39 198 -148.78 198 -143 198 C-142.29646155 193.07523087 -141.90009899 188.89514963 -142 184 C-143.89559964 183.83069605 -145.79149231 183.66467136 -147.6875 183.5 C-148.74324219 183.4071875 -149.79898438 183.314375 -150.88671875 183.21875 C-153.60636025 183.0276585 -156.27539856 182.95956065 -159 183 Z M180 185 C180.33 189.29 180.66 193.58 181 198 C186.28 198 191.56 198 197 198 C197 193.38 197 188.76 197 184 C194.9375 183.979375 192.875 183.95875 190.75 183.9375 C189.58984375 183.92589844 188.4296875 183.91429687 187.234375 183.90234375 C183.83633451 183.88993743 183.83633451 183.88993743 180 185 Z M-135 185 C-135.33 189.29 -135.66 193.58 -136 198 C-130.39 198 -124.78 198 -119 198 C-118.814375 196.39125 -118.62875 194.7825 -118.4375 193.125 C-118.33308594 192.22007812 -118.22867188 191.31515625 -118.12109375 190.3828125 C-117.80325148 187.98346943 -117.80325148 187.98346943 -119 186 C-120.175625 186.309375 -120.175625 186.309375 -121.375 186.625 C-122.674375 186.810625 -122.674375 186.810625 -124 187 C-124.66 186.34 -125.32 185.68 -126 185 C-129.01826653 184.72759327 -131.96370622 184.91324875 -135 185 Z M164 186 C161.32697981 186.0927059 158.67587931 186.04459799 156 186 C154.68842484 188.62315032 155.10350012 190.23033436 155.4375 193.125 C155.623125 194.73375 155.80875 196.3425 156 198 C161.94 198 167.88 198 174 198 C173.67 194.04 173.34 190.08 173 186 C168.14117695 185.01490952 168.14117695 185.01490952 164 186 Z " fill="#000000" transform="translate(181,17)"/>
<path d="M0 0 C3.1875 0.4375 3.1875 0.4375 5.265625 3.01953125 C7.26397648 6.57351 8.2122206 9.60011199 9.125 13.5625 C13.2951897 30.33409462 20.4791798 43.659498 35.5234375 52.8671875 C49.70465745 60.62325925 66.66474332 61.55991298 82.1875 57.8125 C93.36676606 54.41218962 104.45056634 47.95521172 110.1875 37.4375 C110.8475 37.4375 111.5075 37.4375 112.1875 37.4375 C112.45304687 36.90640625 112.71859375 36.3753125 112.9921875 35.828125 C115.390625 31.03125 117.7890625 26.234375 120.1875 21.4375 C127.80837491 22.81025585 134.75589031 25.45245469 141.91934204 28.31790161 C152.86943272 32.69704374 163.82346161 36.86969169 175.11816406 40.29370117 C180.98104223 42.12781335 180.98104223 42.12781335 183.1875 45.4375 C182.74707031 47.40429687 182.74707031 47.40429687 181.765625 49.65625 C181.4049292 50.49639648 181.0442334 51.33654297 180.67260742 52.20214844 C180.26502197 53.10481445 179.85743652 54.00748047 179.4375 54.9375 C178.81548706 56.34177246 178.81548706 56.34177246 178.1809082 57.77441406 C163.12061308 91.28943048 141.14150248 120.55718195 112.1875 143.4375 C111.2490625 144.20835937 110.310625 144.97921875 109.34375 145.7734375 C108.4465625 146.50820313 107.549375 147.24296875 106.625 148 C105.81933594 148.66128906 105.01367188 149.32257813 104.18359375 150.00390625 C102.1875 151.4375 102.1875 151.4375 100.1875 151.4375 C95.1875 145.96130952 95.1875 145.96130952 95.1875 143.4375 C94.1975 143.1075 93.2075 142.7775 92.1875 142.4375 C91.15736723 140.78928756 90.15635372 139.12246298 89.1875 137.4375 C88.5275 137.1075 87.8675 136.7775 87.1875 136.4375 C87.1875 135.7775 87.1875 135.1175 87.1875 134.4375 C86.5275 134.4375 85.8675 134.4375 85.1875 134.4375 C82.1875 130.05288462 82.1875 130.05288462 82.1875 127.4375 C81.1975 127.1075 80.2075 126.7775 79.1875 126.4375 C77.37782651 123.79259259 76.20277629 121.48332887 75.1875 118.4375 C74.5275 118.4375 73.8675 118.4375 73.1875 118.4375 C72.86136719 117.82261719 72.53523437 117.20773437 72.19921875 116.57421875 C71.76222656 115.76597656 71.32523438 114.95773437 70.875 114.125 C70.23111328 112.92423828 70.23111328 112.92423828 69.57421875 111.69921875 C68.27448496 109.57937125 66.94962991 108.16193729 65.1875 106.4375 C64.45956026 105.27435073 63.77085625 104.08565363 63.125 102.875 C61.42106577 99.49186646 61.42106577 99.49186646 59.1875 97.4375 C62.02645047 94.39292461 64.87192889 92.259249 68.4375 90.125 C72.92571842 87.34915407 76.79936095 84.34519911 80.62890625 80.72265625 C82.1875 79.4375 82.1875 79.4375 84.1875 79.4375 C84.1875 78.7775 84.1875 78.1175 84.1875 77.4375 C86.1875 75.8125 86.1875 75.8125 88.1875 74.4375 C86.228536 74.74602185 84.27034287 75.0594418 82.3125 75.375 C81.22195313 75.54902344 80.13140625 75.72304688 79.0078125 75.90234375 C76.24928454 76.29301159 76.24928454 76.29301159 74.1875 77.4375 C57.09285526 78.31467151 39.80541073 76.2831391 25.2109375 66.70703125 C23.11874116 65.28328862 23.11874116 65.28328862 20.1875 64.4375 C20.1875 63.7775 20.1875 63.1175 20.1875 62.4375 C19.383125 62.0971875 19.383125 62.0971875 18.5625 61.75 C15.06021217 59.81452515 12.02188826 57.27188826 9.1875 54.4375 C9.18972061 55.02552399 9.19194122 55.61354797 9.19422913 56.21939087 C9.21638979 62.35149527 9.2314516 68.48358825 9.24243164 74.61572266 C9.24745364 76.90283673 9.25427247 79.18994761 9.26293945 81.47705078 C9.27509845 84.76856273 9.28074973 88.06003215 9.28515625 91.3515625 C9.29031754 92.37053619 9.29547882 93.38950989 9.30079651 94.43936157 C9.30117254 99.22144261 9.1939403 103.73613529 8.1875 108.4375 C20.91162516 107.39657645 32.96687386 105.0844651 45.31835938 101.86474609 C47.1875 101.4375 47.1875 101.4375 49.1875 101.4375 C53.45238485 112.96730793 57.23233014 124.64601442 60.97338867 136.35449219 C62.00957417 139.59241786 63.05450828 142.8274426 64.09960938 146.0625 C64.76095208 148.12743276 65.42177857 150.19253095 66.08203125 152.2578125 C66.55066338 153.70306808 66.55066338 153.70306808 67.02876282 155.17752075 C67.31293564 156.07300629 67.59710846 156.96849182 67.88989258 157.89111328 C68.14128494 158.67495392 68.39267731 159.45879456 68.65168762 160.26638794 C69.1875 162.4375 69.1875 162.4375 69.1875 166.4375 C67.93090576 166.74772095 67.93090576 166.74772095 66.64892578 167.06420898 C63.54363655 167.83201449 60.43888085 168.60193171 57.33447266 169.37329102 C55.99028215 169.70682295 54.64588176 170.03951018 53.30126953 170.37133789 C51.3695681 170.84820441 49.4386778 171.32835289 47.5078125 171.80859375 C45.76395264 172.2406311 45.76395264 172.2406311 43.98486328 172.68139648 C41.25970275 173.31875691 41.25970275 173.31875691 39.1875 174.4375 C38.1975 174.1075 37.2075 173.7775 36.1875 173.4375 C35.8575 174.0975 35.5275 174.7575 35.1875 175.4375 C32.4765625 175.81640625 32.4765625 175.81640625 28.8125 176 C28.14331543 176.03464355 27.47413086 176.06928711 26.78466797 176.10498047 C25.33447354 176.17983565 23.88410177 176.25131384 22.43359375 176.31982422 C20.23387112 176.43507056 18.04023958 176.58877519 15.84375 176.75390625 C-3.02049108 178.09737814 -21.52553591 177.66935035 -39.88037109 172.90869141 C-44.46478106 171.79068392 -49.14848951 171.13252901 -53.8125 170.4375 C-53.8125 169.7775 -53.8125 169.1175 -53.8125 168.4375 C-54.84375 168.31375 -55.875 168.19 -56.9375 168.0625 C-60.43366846 167.49860186 -63.49647627 166.65067941 -66.8125 165.4375 C-66.14583333 160.77083333 -65.47916667 156.10416667 -64.8125 151.4375 C-64.1525 151.4375 -63.4925 151.4375 -62.8125 151.4375 C-62.8125 149.4575 -62.8125 147.4775 -62.8125 145.4375 C-62.1525 145.4375 -61.4925 145.4375 -60.8125 145.4375 C-60.68875 144.42945313 -60.565 143.42140625 -60.4375 142.3828125 C-59.83125807 138.55591029 -58.92114349 135.02156461 -57.8125 131.3125 C-56.63849872 127.36751041 -55.54637977 123.48912788 -54.8125 119.4375 C-54.1525 119.4375 -53.4925 119.4375 -52.8125 119.4375 C-52.78671875 118.8084375 -52.7609375 118.179375 -52.734375 117.53125 C-52.31532132 111.20734898 -50.9667022 106.93191674 -47.8125 101.4375 C-46.79671875 101.70304687 -45.7809375 101.96859375 -44.734375 102.2421875 C-32.12053058 105.49762142 -19.84496528 107.638736 -6.8125 108.4375 C-6.8846875 107.12523437 -6.956875 105.81296875 -7.03125 104.4609375 C-7.86649605 88.10887451 -7.92122742 71.80515906 -7.8125 55.4375 C-9.07243071 56.37520651 -10.3313451 57.31427864 -11.58984375 58.25390625 C-12.29101318 58.77670166 -12.99218262 59.29949707 -13.71459961 59.83813477 C-15.64175507 61.30733009 -17.51083094 62.82730422 -19.375 64.375 C-32.55456787 74.24665261 -46.82625712 76.72861955 -62.82958984 77.35400391 C-64.50864344 77.42470525 -66.18631144 77.52721112 -67.86328125 77.63671875 C-75.64010757 77.97083425 -82.4902241 75.83193767 -89.8125 73.4375 C-77.6080738 85.41211921 -77.6080738 85.41211921 -62.8125 93.4375 C-62.8125 94.0975 -62.8125 94.7575 -62.8125 95.4375 C-61.3275 95.9325 -61.3275 95.9325 -59.8125 96.4375 C-63.46697985 102.4758624 -67.33389686 108.25549603 -71.6875 113.8125 C-74.96805149 118.00133142 -78.11469958 122.23382782 -81.125 126.625 C-82.24725686 128.25628051 -83.3695339 129.88754719 -84.4921875 131.51855469 C-85.46491741 132.93232265 -86.43603329 134.34720145 -87.40625 135.76269531 C-89.1321924 138.26825374 -90.87689826 140.75986486 -92.625 143.25 C-93.17647705 144.05783936 -93.7279541 144.86567871 -94.29614258 145.69799805 C-95.08734497 146.81621948 -95.08734497 146.81621948 -95.89453125 147.95703125 C-96.36093018 148.62839111 -96.8273291 149.29975098 -97.30786133 149.99145508 C-98.8125 151.4375 -98.8125 151.4375 -102.8125 151.4375 C-105.22265625 149.21875 -105.22265625 149.21875 -107.8125 146.4375 C-109.60504361 144.91370747 -111.41793827 143.41354406 -113.25 141.9375 C-114.68085938 140.77541016 -114.68085938 140.77541016 -116.140625 139.58984375 C-117.70902824 138.3264078 -119.2805583 137.06680497 -120.859375 135.81640625 C-122.21141443 134.73155556 -123.51882068 133.5913221 -124.8125 132.4375 C-124.8125 131.7775 -124.8125 131.1175 -124.8125 130.4375 C-125.4725 130.4375 -126.1325 130.4375 -126.8125 130.4375 C-126.8125 129.7775 -126.8125 129.1175 -126.8125 128.4375 C-127.67875 128.06625 -127.67875 128.06625 -128.5625 127.6875 C-132.96380867 125.24232852 -135.7237259 121.32337709 -138.8125 117.4375 C-139.3075 116.9425 -139.8025 116.4475 -140.3125 115.9375 C-142.33338358 113.91661642 -144.03535897 111.67325807 -145.8125 109.4375 C-146.8025 108.4475 -146.8025 108.4475 -147.8125 107.4375 C-148.4725 106.426875 -149.1325 105.41625 -149.8125 104.375 C-151.49248292 101.39432309 -151.49248292 101.39432309 -153.8125 100.4375 C-156.6399528 96.05132322 -159.06650207 91.35803962 -160.8125 86.4375 C-161.4725 86.4375 -162.1325 86.4375 -162.8125 86.4375 C-163.65069158 84.81500059 -164.4829116 83.18941503 -165.3125 81.5625 C-165.7765625 80.65757812 -166.240625 79.75265625 -166.71875 78.8203125 C-167.8125 76.4375 -167.8125 76.4375 -167.8125 74.4375 C-168.4725 74.1075 -169.1325 73.7775 -169.8125 73.4375 C-169.8125 72.4475 -169.8125 71.4575 -169.8125 70.4375 C-170.4725 70.1075 -171.1325 69.7775 -171.8125 69.4375 C-172.70703125 67.609375 -172.70703125 67.609375 -173.625 65.1875 C-174.79285012 62.11746977 -175.96761648 59.06091167 -177.21875 56.0234375 C-177.6828125 54.88132812 -178.146875 53.73921875 -178.625 52.5625 C-179.06457031 51.49257813 -179.50414062 50.42265625 -179.95703125 49.3203125 C-180.85267578 46.30211314 -181.00552482 45.27825781 -179.8125 42.4375 C-178.04785156 41.42358398 -178.04785156 41.42358398 -175.703125 40.68359375 C-174.81689453 40.39178223 -173.93066406 40.0999707 -173.01757812 39.79931641 C-172.04240234 39.49429199 -171.06722656 39.18926758 -170.0625 38.875 C-167.9725586 38.18783637 -165.88408382 37.49620071 -163.796875 36.80078125 C-162.67474609 36.42775879 -161.55261719 36.05473633 -160.39648438 35.67041016 C-153.33784939 33.24220125 -146.38658061 30.52305953 -139.42443848 27.83297729 C-126.88839594 22.99221455 -126.88839594 22.99221455 -120.8125 21.4375 C-120.24402344 22.571875 -119.67554688 23.70625 -119.08984375 24.875 C-110.57107529 41.60644006 -101.94530403 51.06456489 -83.8125 57.4375 C-70.16691753 61.87116569 -51.5510426 61.10034334 -38.6796875 54.9375 C-36.78470358 53.90837035 -34.90669047 52.84679461 -33.0546875 51.7421875 C-30.8125 50.4375 -30.8125 50.4375 -27.8125 49.4375 C-27.8125 48.7775 -27.8125 48.1175 -27.8125 47.4375 C-27.1525 47.4375 -26.4925 47.4375 -25.8125 47.4375 C-25.8125 46.7775 -25.8125 46.1175 -25.8125 45.4375 C-24.64842585 44.27342585 -23.48198847 43.1116328 -22.3046875 41.9609375 C-13.55208274 33.02503211 -10.2823607 21.99837893 -7.5 10.046875 C-5.06031462 0.78716005 -5.06031462 0.78716005 0 0 Z M-135.25 39.875 C-136.73306641 40.55369141 -136.73306641 40.55369141 -138.24609375 41.24609375 C-139.77746207 41.95700294 -141.30240575 42.68245287 -142.8125 43.4375 C-142.41654157 44.92234412 -141.99499294 46.4003831 -141.5625 47.875 C-141.33046875 48.69871094 -141.0984375 49.52242188 -140.859375 50.37109375 C-139.99961431 52.54790462 -139.99961431 52.54790462 -138.0625 53.40625 C-134.79355436 53.45165202 -132.86265066 52.13342122 -130.0625 50.5 C-128.58523437 49.65115234 -128.58523437 49.65115234 -127.078125 48.78515625 C-126.33046875 48.34042969 -125.5828125 47.89570313 -124.8125 47.4375 C-125.50154193 43.49538509 -126.53200292 40.76322491 -128.8125 37.4375 C-130.99731956 37.4375 -133.32117419 38.98959622 -135.25 39.875 Z M129.1875 38.4375 C126.82839647 42.7012281 126.82839647 42.7012281 126.1875 47.4375 C127.92872549 48.47322896 129.68086595 49.4906252 131.4375 50.5 C132.41203125 51.06847656 133.3865625 51.63695312 134.390625 52.22265625 C137.02480468 53.61799945 137.02480468 53.61799945 139.4375 53.30078125 C142.36856176 51.85487802 143.01739907 49.36275233 144.1875 46.4375 C144.1875 45.4475 144.1875 44.4575 144.1875 43.4375 C142.25282058 42.59763916 140.31464871 41.76581973 138.375 40.9375 C137.29605469 40.4734375 136.21710938 40.009375 135.10546875 39.53125 C132.23867976 38.26200697 132.23867976 38.26200697 129.1875 38.4375 Z M151.1875 46.4375 C150.34635829 47.87044498 149.51484313 49.30904405 148.6875 50.75 C148.2234375 51.55050781 147.759375 52.35101563 147.28125 53.17578125 C145.96982114 55.4689118 145.96982114 55.4689118 146.1875 58.4375 C148.14335325 59.44234204 150.10226237 60.44123805 152.0625 61.4375 C153.15304687 61.994375 154.24359375 62.55125 155.3671875 63.125 C157.97125082 64.57814094 157.97125082 64.57814094 160.1875 64.4375 C161.05354534 62.67244565 161.90498642 60.90021926 162.75 59.125 C163.22566406 58.13886719 163.70132812 57.15273438 164.19140625 56.13671875 C165.52160703 53.39796471 165.52160703 53.39796471 164.1875 50.4375 C161.17109945 49.18109742 161.17109945 49.18109742 157.625 48.25 C155.82869141 47.73373047 155.82869141 47.73373047 153.99609375 47.20703125 C153.06925781 46.95308594 152.14242188 46.69914062 151.1875 46.4375 Z M-158.4375 48.9375 C-160.22027344 49.63359375 -160.22027344 49.63359375 -162.0390625 50.34375 C-162.95429688 50.7046875 -163.86953125 51.065625 -164.8125 51.4375 C-163.66362887 55.04971644 -162.42917691 58.44525797 -160.6875 61.8125 C-160.15769531 62.84503906 -160.15769531 62.84503906 -159.6171875 63.8984375 C-159.35164063 64.40632813 -159.08609375 64.91421875 -158.8125 65.4375 C-156.8494164 64.50998802 -154.89215973 63.57013547 -152.9375 62.625 C-151.84695312 62.10292969 -150.75640625 61.58085937 -149.6328125 61.04296875 C-146.59028598 59.59025103 -146.59028598 59.59025103 -144.8125 56.4375 C-146.4625 53.1375 -148.1125 49.8375 -149.8125 46.4375 C-152.95279447 46.4375 -155.53080469 47.79761949 -158.4375 48.9375 Z M-121.8125 52.4375 C-126.1025 55.0775 -130.3925 57.7175 -134.8125 60.4375 C-134.07 62.066875 -133.3275 63.69625 -132.5625 65.375 C-132.14484375 66.29152344 -131.7271875 67.20804688 -131.296875 68.15234375 C-130.0234176 70.54981895 -130.0234176 70.54981895 -127.828125 71.37890625 C-125.49146351 71.6413847 -125.49146351 71.6413847 -122.8125 69.4375 C-122.8125 68.7775 -122.8125 68.1175 -122.8125 67.4375 C-122.049375 67.14875 -121.28625 66.86 -120.5 66.5625 C-117.66220692 65.47480987 -117.66220692 65.47480987 -114.8125 63.4375 C-116.21009905 59.89231116 -116.21009905 59.89231116 -117.8125 56.4375 C-118.4725 56.4375 -119.1325 56.4375 -119.8125 56.4375 C-120.4725 55.1175 -121.1325 53.7975 -121.8125 52.4375 Z M119.765625 54.828125 C119.10820312 55.74851562 119.10820312 55.74851562 118.4375 56.6875 C117.76460938 57.59242188 117.76460938 57.59242188 117.078125 58.515625 C116.03764425 60.38714671 116.03764425 60.38714671 116.2421875 62.4375 C117.58998834 65.28904558 119.47005612 66.42914676 122.0625 68.1875 C122.94679688 68.80109375 123.83109375 69.4146875 124.7421875 70.046875 C127.15328752 71.68467169 127.15328752 71.68467169 130.1875 71.4375 C132.1675 67.8075 134.1475 64.1775 136.1875 60.4375 C133.37240007 58.1601499 133.37240007 58.1601499 130.1875 58.4375 C130.1875 57.7775 130.1875 57.1175 130.1875 56.4375 C124.93337579 53.08906529 124.93337579 53.08906529 119.765625 54.828125 Z M-148.9375 67.4375 C-150.03320312 67.994375 -151.12890625 68.55125 -152.2578125 69.125 C-153.10085937 69.558125 -153.94390625 69.99125 -154.8125 70.4375 C-154.24909352 74.36047846 -153.11159621 76.92830356 -150.875 80.1875 C-150.35035156 80.96609375 -149.82570313 81.7446875 -149.28515625 82.546875 C-147.94073573 84.55288653 -147.94073573 84.55288653 -145.8125 85.4375 C-143.99636638 84.15094735 -142.18469046 82.85810005 -140.375 81.5625 C-139.36566406 80.84320313 -138.35632813 80.12390625 -137.31640625 79.3828125 C-134.75453753 77.6815274 -134.75453753 77.6815274 -133.8125 75.4375 C-134.57751555 73.64209489 -134.57751555 73.64209489 -135.75 71.8125 C-136.7709375 70.141875 -136.7709375 70.141875 -137.8125 68.4375 C-138.4725 68.4375 -139.1325 68.4375 -139.8125 68.4375 C-140.1425 67.1175 -140.4725 65.7975 -140.8125 64.4375 C-143.93364363 64.4375 -146.1823871 66.03063384 -148.9375 67.4375 Z M142.1875 64.4375 C140.26195655 66.588976 140.26195655 66.588976 138.5 69.3125 C137.87738281 70.21742188 137.25476563 71.12234375 136.61328125 72.0546875 C135.01634633 74.26073676 135.01634633 74.26073676 135.1875 76.4375 C137.09124355 77.88713959 139.06217159 79.24934323 141.0625 80.5625 C142.15304687 81.28695312 143.24359375 82.01140625 144.3671875 82.7578125 C146.92678818 84.60806435 146.92678818 84.60806435 149.1875 84.4375 C150.75234351 82.32860992 150.75234351 82.32860992 152.25 79.6875 C152.77722656 78.80578125 153.30445313 77.9240625 153.84765625 77.015625 C155.01589487 74.7677023 155.71970782 72.90929076 156.1875 70.4375 C153.54011084 68.9768715 152.29301666 68.4375 149.1875 68.4375 C149.1875 67.7775 149.1875 67.1175 149.1875 66.4375 C146.54011084 64.9768715 145.29301666 64.4375 142.1875 64.4375 Z M-111.8125 69.4375 C-115.7725 72.0775 -119.7325 74.7175 -123.8125 77.4375 C-123.27625 78.55125 -122.74 79.665 -122.1875 80.8125 C-121.88585937 81.43898438 -121.58421875 82.06546875 -121.2734375 82.7109375 C-119.48922569 85.12297693 -119.48922569 85.12297693 -113.8125 86.4375 C-110.5125 83.4675 -107.2125 80.4975 -103.8125 77.4375 C-104.4725 77.1075 -105.1325 76.7775 -105.8125 76.4375 C-106.10125 75.633125 -106.39 74.82875 -106.6875 74 C-107.69493853 70.96361282 -107.69493853 70.96361282 -111.8125 69.4375 Z M110.1875 69.4375 C108.83037834 70.99605981 108.83037834 70.99605981 107.5625 72.9375 C107.11648438 73.5871875 106.67046875 74.236875 106.2109375 74.90625 C105.87320312 75.4115625 105.53546875 75.916875 105.1875 76.4375 C106.63531793 79.88178265 108.46444609 81.79880962 111.3125 84.1875 C112.03695313 84.80109375 112.76140625 85.4146875 113.5078125 86.046875 C114.06210937 86.50578125 114.61640625 86.9646875 115.1875 87.4375 C119.32787949 85.60701644 121.01987277 83.45162451 123.1875 79.4375 C123.22341708 77.38044346 123.22341708 77.38044346 122.1875 75.4375 C119.96380691 73.64626705 119.96380691 73.64626705 117.25 72.1875 C116.35410156 71.66671875 115.45820313 71.1459375 114.53515625 70.609375 C112.32657285 69.28862733 112.32657285 69.28862733 110.1875 69.4375 Z M-136.4375 86.9375 C-137.94183594 88.19046875 -137.94183594 88.19046875 -139.4765625 89.46875 C-140.63285156 90.44328125 -140.63285156 90.44328125 -141.8125 91.4375 C-139.82790239 95.54317185 -137.77825394 98.96040917 -134.8125 102.4375 C-129.48552761 100.98468935 -126.44847198 97.35638622 -122.8125 93.4375 C-123.58729736 90.44597418 -123.58729736 90.44597418 -124.8125 87.4375 C-125.8025 87.1075 -126.7925 86.7775 -127.8125 86.4375 C-128.5 84.375 -128.5 84.375 -128.8125 82.4375 C-132.13935674 82.4375 -133.95555186 84.85958993 -136.4375 86.9375 Z M-99.8125 82.4375 C-105.2575 87.3875 -105.2575 87.3875 -110.8125 92.4375 C-108.86033565 96.34182869 -106.93863393 98.47589944 -103.8125 101.4375 C-102.4925 100.7775 -101.1725 100.1175 -99.8125 99.4375 C-99.8125 98.7775 -99.8125 98.1175 -99.8125 97.4375 C-98.94625 97.0971875 -98.94625 97.0971875 -98.0625 96.75 C-95.21510191 95.08901778 -93.69182807 93.12225439 -91.8125 90.4375 C-91.8125 89.7775 -91.8125 89.1175 -91.8125 88.4375 C-92.4725 88.4375 -93.1325 88.4375 -93.8125 88.4375 C-94.06 87.81875 -94.3075 87.2 -94.5625 86.5625 C-95.82289254 83.97881114 -95.82289254 83.97881114 -99.8125 82.4375 Z M129.1875 82.4375 C126.8775 85.4075 124.5675 88.3775 122.1875 91.4375 C124.14137664 95.34525329 125.57642729 96.91372339 128.8125 99.6875 C129.62976563 100.39390625 130.44703125 101.1003125 131.2890625 101.828125 C131.91554688 102.35921875 132.54203125 102.8903125 133.1875 103.4375 C137.92857498 100.18647716 140.39620403 96.33117634 143.1875 91.4375 C139.41156041 87.15679002 139.41156041 87.15679002 134.1875 85.4375 C134.1875 84.7775 134.1875 84.1175 134.1875 83.4375 C132.5375 83.1075 130.8875 82.7775 129.1875 82.4375 Z M97.1875 83.4375 C97.1875 84.0975 97.1875 84.7575 97.1875 85.4375 C96.548125 85.685 95.90875 85.9325 95.25 86.1875 C93.0914457 87.25080635 93.0914457 87.25080635 92.28125 89.1875 C91.94494268 91.66420655 91.94494268 91.66420655 94.05859375 94.015625 C94.90550781 94.89734375 95.75242187 95.7790625 96.625 96.6875 C97.46933594 97.57953125 98.31367188 98.4715625 99.18359375 99.390625 C100.17552734 100.40382813 100.17552734 100.40382813 101.1875 101.4375 C105.04985664 99.98751229 107.63141351 98.78007465 110.1875 95.4375 C109.92912167 91.3895729 107.48941579 89.40074757 104.6875 86.6875 C103.8728125 85.88828125 103.058125 85.0890625 102.21875 84.265625 C99.88682082 81.99844703 99.88682082 81.99844703 97.1875 83.4375 Z M-89.375 96.8125 C-90.01566406 97.43898438 -90.65632813 98.06546875 -91.31640625 98.7109375 C-93.03078848 100.30865151 -93.03078848 100.30865151 -92.8125 102.4375 C-93.4725 102.4375 -94.1325 102.4375 -94.8125 102.4375 C-97.0898501 105.25259993 -97.0898501 105.25259993 -96.8125 108.4375 C-94.81723828 110.13297681 -94.81723828 110.13297681 -92.3125 111.625 C-91.05953125 112.41970703 -91.05953125 112.41970703 -89.78125 113.23046875 C-89.1315625 113.62878906 -88.481875 114.02710938 -87.8125 114.4375 C-87.1525 113.7775 -86.4925 113.1175 -85.8125 112.4375 C-85.8125 111.4475 -85.8125 110.4575 -85.8125 109.4375 C-84.8225 109.1075 -83.8325 108.7775 -82.8125 108.4375 C-82.8125 107.4475 -82.8125 106.4575 -82.8125 105.4375 C-81.8225 105.1075 -80.8325 104.7775 -79.8125 104.4375 C-78.6047442 100.81423261 -79.26938872 99.79603631 -80.8125 96.4375 C-81.8025 96.4375 -82.7925 96.4375 -83.8125 96.4375 C-84.1425 95.4475 -84.4725 94.4575 -84.8125 93.4375 C-86.74591947 93.4375 -88.08714127 95.53764994 -89.375 96.8125 Z M80.5625 96.9375 C79.93085938 97.4015625 79.29921875 97.865625 78.6484375 98.34375 C78.16632813 98.7046875 77.68421875 99.065625 77.1875 99.4375 C79.66281201 105.11615696 83.3001086 109.64482567 87.1875 114.4375 C90.95238042 112.71595212 93.33813897 110.44515886 96.1875 107.4375 C94.84932195 103.45781425 93.18412286 101.05001238 90.1875 98.125 C89.48625 97.42761719 88.785 96.73023438 88.0625 96.01171875 C84.88468566 93.34367879 83.57030275 94.70949796 80.5625 96.9375 Z M-120.78515625 100.15234375 C-121.81962891 101.25255859 -121.81962891 101.25255859 -122.875 102.375 C-126.64164573 106.35207286 -126.64164573 106.35207286 -128.8125 107.4375 C-126.67031036 112.69560184 -122.88477888 116.08482597 -117.8125 118.4375 C-116.30356184 116.84173801 -114.80558924 115.23560089 -113.3125 113.625 C-112.05953125 112.28501953 -112.05953125 112.28501953 -110.78125 110.91796875 C-108.50165906 108.57366718 -108.50165906 108.57366718 -108.8125 105.4375 C-110.62510132 103.20818176 -110.62510132 103.20818176 -112.8125 101.4375 C-113.4725 101.4375 -114.1325 101.4375 -114.8125 101.4375 C-115.1425 100.4475 -115.4725 99.4575 -115.8125 98.4375 C-118.87078587 98.10946615 -118.87078587 98.10946615 -120.78515625 100.15234375 Z M112.1875 101.4375 C112.1875 102.0975 112.1875 102.7575 112.1875 103.4375 C111.5275 103.4375 110.8675 103.4375 110.1875 103.4375 C110.1875 104.0975 110.1875 104.7575 110.1875 105.4375 C109.5275 105.4375 108.8675 105.4375 108.1875 105.4375 C107.8575 106.4275 107.5275 107.4175 107.1875 108.4375 C108.7550518 110.1396698 110.34209784 111.82390554 111.9375 113.5 C112.81921875 114.43972656 113.7009375 115.37945312 114.609375 116.34765625 C116.90554748 118.64901092 116.90554748 118.64901092 119.28125 118.46875 C121.5890959 117.2202432 123.13548826 115.78097396 124.9375 113.875 C125.55109375 113.23433594 126.1646875 112.59367187 126.796875 111.93359375 C127.25578125 111.43988281 127.7146875 110.94617188 128.1875 110.4375 C127.40619929 107.94197516 127.40619929 107.94197516 126.1875 105.4375 C125.1975 105.1075 124.2075 104.7775 123.1875 104.4375 C123.1875 103.7775 123.1875 103.1175 123.1875 102.4375 C118.59352555 98.32710181 116.99370424 97.27212299 112.1875 101.4375 Z M-78.8125 99.4375 C-77.8125 101.4375 -77.8125 101.4375 -77.8125 101.4375 Z M-103.8125 112.4375 C-105.3483444 114.00627674 -106.86581331 115.59306154 -108.375 117.1875 C-109.22191406 118.06921875 -110.06882812 118.9509375 -110.94140625 119.859375 C-113.02406083 122.19270429 -113.02406083 122.19270429 -112.796875 124.55859375 C-111.63343677 126.77928338 -110.39777694 128.11230384 -108.5 129.75 C-107.90574219 130.28238281 -107.31148438 130.81476563 -106.69921875 131.36328125 C-104.88974825 132.59665591 -104.88974825 132.59665591 -102.84765625 132.453125 C-99.80160264 130.93302147 -98.47834523 128.65297558 -96.5625 125.875 C-95.85609375 124.86308594 -95.1496875 123.85117187 -94.421875 122.80859375 C-93.62523437 121.63490234 -93.62523437 121.63490234 -92.8125 120.4375 C-94.43589805 118.72865995 -96.10569053 117.06303283 -97.8125 115.4375 C-98.4725 115.4375 -99.1325 115.4375 -99.8125 115.4375 C-99.8125 114.7775 -99.8125 114.1175 -99.8125 113.4375 C-101.1325 113.1075 -102.4525 112.7775 -103.8125 112.4375 Z M96.625 115.9375 C95.38556641 116.91203125 95.38556641 116.91203125 94.12109375 117.90625 C93.48300781 118.4115625 92.84492188 118.916875 92.1875 119.4375 C94.98962182 124.57472333 98.46457417 130.52985806 104.1875 132.4375 C106.41774131 131.20236718 106.41774131 131.20236718 108.1875 129.4375 C108.1875 128.7775 108.1875 128.1175 108.1875 127.4375 C109.1775 127.1075 110.1675 126.7775 111.1875 126.4375 C110.68418786 122.00992604 109.19315648 119.86144796 106.1875 116.625 C105.465625 115.83480469 104.74375 115.04460937 104 114.23046875 C100.81036466 111.07520448 99.82480199 113.41371252 96.625 115.9375 Z M-39.8125 117.4375 C-43.12592077 125.20624414 -43.12592077 125.20624414 -44.8125 133.4375 C-43.39711283 133.77622513 -41.98012037 134.10824624 -40.5625 134.4375 C-39.77359375 134.623125 -38.9846875 134.80875 -38.171875 135 C-35.55693998 135.55904828 -35.55693998 135.55904828 -31.8125 135.4375 C-30.37913769 130.08628069 -29.40265185 124.94558397 -28.8125 119.4375 C-34.2575 118.4475 -34.2575 118.4475 -39.8125 117.4375 Z M30.1875 119.4375 C30.66736031 125.00640517 31.48665181 130.10817568 33.1875 135.4375 C39.1275 133.9525 39.1275 133.9525 45.1875 132.4375 C44.89875 130.87 44.61 129.3025 44.3125 127.6875 C44.06886719 126.36492187 44.06886719 126.36492187 43.8203125 125.015625 C43.21953736 122.56802256 42.40752883 120.63150143 41.1875 118.4375 C37.35524573 118.34837781 33.92187848 118.55882271 30.1875 119.4375 Z M-21.8125 120.4375 C-23.6542395 126.08550112 -24.36025239 131.52257728 -24.8125 137.4375 C-24.12542969 137.4375 -23.43835938 137.4375 -22.73046875 137.4375 C-19.09114583 137.4375 -15.45182292 137.4375 -11.8125 137.4375 C-11.833125 136.24125 -11.85375 135.045 -11.875 133.8125 C-11.88132571 130.25745131 -11.51138875 126.93194376 -10.8125 123.4375 C-11.4725 123.4375 -12.1325 123.4375 -12.8125 123.4375 C-12.8125 124.0975 -12.8125 124.7575 -12.8125 125.4375 C-13.4725 125.4375 -14.1325 125.4375 -14.8125 125.4375 C-14.4825 124.4475 -14.1525 123.4575 -13.8125 122.4375 C-14.1425 122.1075 -14.4725 121.7775 -14.8125 121.4375 C-15.616875 121.4375 -16.42125 121.4375 -17.25 121.4375 C-19.8125 121.4375 -19.8125 121.4375 -21.8125 120.4375 Z M-2.8125 121.4375 C-5.22143538 125.05090308 -5.23060201 127.26096492 -5.5 131.5625 C-5.58636719 132.82320312 -5.67273438 134.08390625 -5.76171875 135.3828125 C-5.77847656 136.39085937 -5.79523438 137.39890625 -5.8125 138.4375 C-4.66472875 139.81174059 -4.66472875 139.81174059 -1.5625 139.5625 C1.53822428 139.45914252 4.17879174 139.09111593 7.1875 138.4375 C7.04728195 135.79125716 6.90060224 133.14565422 6.75 130.5 C6.71068359 129.74525391 6.67136719 128.99050781 6.63085938 128.21289062 C6.74711976 124.51805813 6.74711976 124.51805813 5.1875 121.4375 C3.52132885 121.39686168 1.85361905 121.394779 0.1875 121.4375 C0.1875 122.0975 0.1875 122.7575 0.1875 123.4375 C-0.1425 122.7775 -0.4725 122.1175 -0.8125 121.4375 C-1.4725 121.4375 -2.1325 121.4375 -2.8125 121.4375 Z M16.5625 120.9375 C15.33660156 121.07671875 15.33660156 121.07671875 14.0859375 121.21875 C13.45945313 121.2909375 12.83296875 121.363125 12.1875 121.4375 C12.30193603 123.5214403 12.42945547 125.60466493 12.5625 127.6875 C12.63210937 128.84765625 12.70171875 130.0078125 12.7734375 131.203125 C13.14998308 134.14444334 13.6649123 135.93699011 15.1875 138.4375 C16.64630109 138.29642253 18.10453551 138.14947585 19.5625 138 C20.37460938 137.91878906 21.18671875 137.83757812 22.0234375 137.75390625 C24.23022805 137.54659886 24.23022805 137.54659886 26.1875 136.4375 C25.87825786 134.33285207 25.5649944 132.2287947 25.25 130.125 C25.07597656 128.95324219 24.90195313 127.78148437 24.72265625 126.57421875 C24.26656969 123.42108597 24.26656969 123.42108597 23.1875 120.4375 C20.94375048 120.4375 18.79181457 120.68272119 16.5625 120.9375 Z M-46.8125 140.4375 C-48.86612055 145.52690744 -50.24429252 149.98270815 -50.8125 155.4375 C-45.70915983 157.342747 -41.34907294 158.86339023 -35.8125 158.4375 C-33.94466954 152.95074804 -33.5766604 148.21557024 -33.8125 142.4375 C-35.22788717 142.09877487 -36.64487963 141.76675376 -38.0625 141.4375 C-38.85140625 141.251875 -39.6403125 141.06625 -40.453125 140.875 C-43.06806002 140.31595172 -43.06806002 140.31595172 -46.8125 140.4375 Z M40.5625 140.9375 C39.55960938 141.2159375 38.55671875 141.494375 37.5234375 141.78125 C36.75257813 141.9978125 35.98171875 142.214375 35.1875 142.4375 C35.70232919 148.290295 36.64107192 153.7672637 38.1875 159.4375 C43.59531799 158.868256 47.81948544 157.97121845 53.1875 156.4375 C51.5375 150.8275 49.8875 145.2175 48.1875 139.4375 C45.47813794 139.4375 43.17031251 140.20973837 40.5625 140.9375 Z M-25.8125 144.4375 C-26.8025 149.7175 -27.7925 154.9975 -28.8125 160.4375 C-24.1925 161.0975 -19.5725 161.7575 -14.8125 162.4375 C-12.96933042 156.90799126 -12.66764496 151.23170166 -12.8125 145.4375 C-17.41797409 144.28613148 -20.75244143 144.4375 -25.8125 144.4375 Z M14.1875 146.4375 C14.5175 151.3875 14.8475 156.3375 15.1875 161.4375 C19.1271603 162.22543206 21.11947441 162.53433174 24.875 162.0625 C25.64199219 161.97226562 26.40898437 161.88203125 27.19921875 161.7890625 C29.25349225 161.5231072 29.25349225 161.5231072 31.1875 160.4375 C30.98833984 159.45910156 30.98833984 159.45910156 30.78515625 158.4609375 C29.84267178 153.7966713 28.92981297 149.13881546 28.1875 144.4375 C26.60455218 144.38312393 25.02105744 144.34453729 23.4375 144.3125 C22.55578125 144.28929687 21.6740625 144.26609375 20.765625 144.2421875 C17.82969919 144.30109229 17.82969919 144.30109229 14.1875 146.4375 Z M-5.8125 145.4375 C-6.6445582 151.15790011 -6.93286664 156.65990116 -6.8125 162.4375 C-4.71057303 162.68637295 -2.60576036 162.9109719 -0.5 163.125 C1.25763672 163.31642578 1.25763672 163.31642578 3.05078125 163.51171875 C6.10391813 163.68758062 6.10391813 163.68758062 8.12109375 162.3359375 C9.6845771 159.55259352 9.28841631 157.51417529 8.9375 154.375 C8.82921875 153.31152344 8.7209375 152.24804688 8.609375 151.15234375 C8.33505538 148.47880403 8.33505538 148.47880403 7.1875 146.4375 C4.14168731 145.96795739 4.14168731 145.96795739 0.625 145.8125 C-0.57253906 145.73773438 -1.77007812 145.66296875 -3.00390625 145.5859375 C-3.93074219 145.53695312 -4.85757813 145.48796875 -5.8125 145.4375 Z " fill="#000000" transform="translate(198.8125,219.5625)"/>
<path d="M0 0 C1.43352212 0.00015908 2.86704998 0.00585132 4.30053711 0.01586914 C5.43041298 0.01799156 5.43041298 0.01799156 6.58311462 0.02015686 C8.99807646 0.02577163 11.41294687 0.03832656 13.82788086 0.05102539 C15.46134307 0.05603849 17.09480672 0.06060173 18.72827148 0.06469727 C22.74067671 0.07574585 26.75301326 0.09302033 30.76538086 0.11352539 C40.54213837 25.85405973 50.22102288 51.63110106 59.88452148 77.41430664 C60.12906193 78.06670004 60.37360237 78.71909344 60.62555313 79.39125633 C61.84834844 82.65372539 63.07051517 85.91642748 64.29144287 89.17959595 C66.61407697 95.38551834 68.94273947 101.58901264 71.28956032 107.78583622 C72.40743369 110.73837668 73.52252629 113.691964 74.63744736 116.64562035 C75.17069917 118.05588402 75.70533252 119.46562617 76.24142838 120.87481117 C76.98451048 122.8283266 77.72283262 124.78358144 78.46020508 126.73925781 C78.88212128 127.85201584 79.30403748 128.96477386 79.73873901 130.11125183 C80.65253144 132.78351272 81.29456739 135.33355413 81.76538086 138.11352539 C77.42598463 138.96703578 73.469183 139.17469153 69.05444336 138.99243164 C67.81049805 138.9440918 66.56655273 138.89575195 65.28491211 138.84594727 C63.9997168 138.78987305 62.71452148 138.73379883 61.39038086 138.67602539 C60.08198242 138.62381836 58.77358398 138.57161133 57.42553711 138.51782227 C54.20522008 138.38853947 50.98524405 138.25358849 47.76538086 138.11352539 C47.5662207 137.37166992 47.36706055 136.62981445 47.16186523 135.86547852 C46.89696289 134.88514648 46.63206055 133.90481445 46.35913086 132.89477539 C45.96757813 131.44167969 45.96757813 131.44167969 45.56811523 129.95922852 C44.86878292 127.48008694 44.10365735 125.04843505 43.26538086 122.61352539 C41.5164476 117.51478346 40.13858973 112.32392785 38.76538086 107.11352539 C34.31038086 108.10352539 34.31038086 108.10352539 29.76538086 109.11352539 C29.76538086 108.78352539 29.76538086 108.45352539 29.76538086 108.11352539 C22.83538086 107.61852539 22.83538086 107.61852539 15.76538086 107.11352539 C15.43538086 107.77352539 15.10538086 108.43352539 14.76538086 109.11352539 C14.43538086 108.78352539 14.10538086 108.45352539 13.76538086 108.11352539 C11.76755959 107.95527281 9.76449252 107.86233368 7.76147461 107.79711914 C6.5465332 107.75522461 5.3315918 107.71333008 4.07983398 107.67016602 C2.80043945 107.63084961 1.52104492 107.5915332 0.20288086 107.55102539 C-1.08038086 107.5078418 -2.36364258 107.4646582 -3.68579102 107.42016602 C-6.86861767 107.31367739 -10.05152588 107.21166577 -13.23461914 107.11352539 C-13.47954102 108.36004883 -13.72446289 109.60657227 -13.97680664 110.89086914 C-15.2626176 116.67701848 -17.28358838 122.13383021 -19.35961914 127.67602539 C-19.7321582 128.6847168 -20.10469727 129.6934082 -20.48852539 130.73266602 C-21.39872348 133.19486853 -22.31594601 135.65447243 -23.23461914 138.11352539 C-28.84461914 138.11352539 -34.45461914 138.11352539 -40.23461914 138.11352539 C-40.23461914 138.77352539 -40.23461914 139.43352539 -40.23461914 140.11352539 C-40.89461914 140.11352539 -41.55461914 140.11352539 -42.23461914 140.11352539 C-42.23461914 139.45352539 -42.23461914 138.79352539 -42.23461914 138.11352539 C-46.85461914 138.11352539 -51.47461914 138.11352539 -56.23461914 138.11352539 C-55.24356278 134.23188796 -54.09382865 130.66264599 -52.41430664 127.02368164 C-50.11358445 121.91764705 -48.09379154 116.72432631 -46.10961914 111.48852539 C-45.76286133 110.58618164 -45.41610352 109.68383789 -45.05883789 108.75415039 C-43.5824254 104.87361795 -42.16877401 101.04646195 -41.11743164 97.02758789 C-40.82610352 96.06594727 -40.53477539 95.10430664 -40.23461914 94.11352539 C-39.24461914 93.61852539 -39.24461914 93.61852539 -38.23461914 93.11352539 C-38.13149414 91.97915039 -38.02836914 90.84477539 -37.92211914 89.67602539 C-37.47259493 85.04759089 -35.68180051 81.5607053 -33.48852539 77.50805664 C-31.42133577 73.56043286 -29.93950006 69.36915178 -28.35961914 65.20727539 C-28.01415039 64.29848633 -27.66868164 63.38969727 -27.31274414 62.45336914 C-26.95696289 61.5162207 -26.60118164 60.57907227 -26.23461914 59.61352539 C-25.52668654 57.74878987 -24.81836561 55.88420173 -24.10961914 54.01977539 C-23.79766602 53.19799805 -23.48571289 52.3762207 -23.16430664 51.52954102 C-22.20958043 49.04845631 -21.22391281 46.58099743 -20.23461914 44.11352539 C-17.60873408 37.19267044 -15.2722508 30.22979958 -13.23461914 23.11352539 C-12.57461914 23.11352539 -11.91461914 23.11352539 -11.23461914 23.11352539 C-11.00774414 21.89665039 -10.78086914 20.67977539 -10.54711914 19.42602539 C-6.32035744 0.22182551 -6.32035744 0.22182551 0 0 Z M12.76538086 30.11352539 C8.5929318 39.60016817 5.1358887 49.29079616 1.77905273 59.08935547 C0.88022865 61.70557557 -0.03249744 64.31669742 -0.94555664 66.92797852 C-1.51932449 68.5950035 -2.09227224 70.26231103 -2.66430664 71.92993164 C-2.93814178 72.70800674 -3.21197693 73.48608185 -3.49411011 74.28773499 C-5.05162014 78.65272802 -5.05162014 78.65272802 -4.23461914 83.11352539 C-3.73961914 82.61852539 -3.73961914 82.61852539 -3.23461914 82.11352539 C-0.53812479 82.23485247 2.13746801 82.40883803 4.82788086 82.61352539 C13.56696115 83.20428933 22.0510262 82.88523255 30.76538086 82.11352539 C27.72996044 70.82712793 23.98738716 59.80923388 20.07788086 48.80102539 C19.83218353 48.1067746 19.58648621 47.4125238 19.33334351 46.69723511 C18.62275346 44.69281341 17.90791487 42.68996949 17.19116211 40.68774414 C16.77261963 39.51816162 16.35407715 38.3485791 15.92285156 37.14355469 C14.98966352 34.70065301 13.99499023 32.41669873 12.76538086 30.11352539 Z " fill="#000000" transform="translate(496.234619140625,123.886474609375)"/>
<path d="M0 0 C9.9 0 19.8 0 30 0 C30 25.41 30 50.82 30 77 C32.11093455 77.23476384 32.11093455 77.23476384 33.48046875 75.53125 C34.04378906 74.8609375 34.60710938 74.190625 35.1875 73.5 C35.81011719 72.7678125 36.43273437 72.035625 37.07421875 71.28125 C37.70972656 70.5284375 38.34523438 69.775625 39 69 C40.16375388 67.66412358 41.33034548 66.33071304 42.5 65 C44.25793924 62.99485055 46.01137257 60.98677431 47.75 58.96484375 C51.18830966 54.98162341 54.72927531 51.19445101 58.51953125 47.54296875 C60.21835505 45.86292628 60.21835505 45.86292628 62 43 C64.69540315 42.73313787 67.15847464 42.65181927 69.8515625 42.70703125 C70.62559418 42.71127609 71.39962585 42.71552094 72.19711304 42.71989441 C74.67342677 42.73671002 77.14893158 42.77436605 79.625 42.8125 C81.30207159 42.82754318 82.97915592 42.84123222 84.65625 42.85351562 C88.77114581 42.88662279 92.88543569 42.93842363 97 43 C95.47396585 46.21630141 93.90199229 48.28769299 91.3125 50.75 C88.67915859 53.3173901 86.14878797 55.89971939 83.75 58.6875 C80.6196577 62.32527222 77.38765704 65.8564283 74.125 69.375 C69.03086289 74.87071638 63.994196 80.41305851 59 86 C60.44165995 90.43900946 62.88767452 93.50321167 65.9375 96.9375 C69.94251331 101.55264947 73.81616104 106.23486793 77.5625 111.0625 C81.86791095 116.59824835 86.29211675 122.01419469 90.80859375 127.37890625 C92.28276365 129.14212907 93.71250012 130.94336608 95.09765625 132.77734375 C96.88012996 135.24621918 96.88012996 135.24621918 100 136 C99.67 136.66 99.34 137.32 99 138 C93.82964871 138.33511536 88.66032247 138.6151402 83.48486328 138.85791016 C81.1675371 138.99041987 78.86858428 139.19432038 76.55859375 139.41796875 C66.63568171 140.17931158 66.63568171 140.17931158 62.00390625 136.83984375 C56 130.33014821 56 130.33014821 56 127 C55.4225 126.79375 54.845 126.5875 54.25 126.375 C51.13996235 124.47442144 49.94032855 122.08169828 48 119 C46.9928594 117.59425493 45.97139556 116.1986859 44.9375 114.8125 C44.45152344 114.15894531 43.96554687 113.50539063 43.46484375 112.83203125 C42.0694571 111.08686768 40.59055799 109.56577008 39 108 C37.47867247 106.2568122 35.99030023 104.48848153 34.5 102.71875 C33.06195629 101.07099159 31.55332741 99.53822562 30 98 C30.00785522 99.76428345 30.00785522 99.76428345 30.01586914 101.56420898 C30.03391663 105.91202031 30.04543108 110.2598283 30.05493164 114.60766602 C30.05997244 116.4924373 30.06680498 118.37720465 30.07543945 120.26196289 C30.08751617 122.96501636 30.09323068 125.66801831 30.09765625 128.37109375 C30.10281754 129.21900986 30.10797882 130.06692596 30.11329651 130.9405365 C30.11349195 132.96071068 30.06206211 134.98077934 30 137 C27.96634899 139.03365101 23.92572643 138.41794254 21.125 138.5625 C20.35865234 138.6042334 19.59230469 138.6459668 18.80273438 138.68896484 C5.9918676 139.34779405 5.9918676 139.34779405 1 139 C0 138 0 138 -0.0625 135.9453125 C-0.041875 135.01460937 -0.02125 134.08390625 0 133.125 C0.04082332 128.74159654 -0.07036384 124.40950887 -0.35595703 120.03515625 C-1.01292552 109.89779835 -1.11287493 99.77960487 -1.125 89.625 C-1.12874634 88.5219603 -1.12874634 88.5219603 -1.13256836 87.39663696 C-1.1384843 85.27739808 -1.13695822 83.15830317 -1.1328125 81.0390625 C-1.13168457 79.80365723 -1.13055664 78.56825195 -1.12939453 77.29541016 C-1 74 -1 74 -0.42919922 71.24755859 C0.21945689 68.84410022 0.21945689 68.84410022 -1 66 C-1.01637174 63.53099455 -0.9738674 61.09775276 -0.87890625 58.6328125 C-0.85524994 57.89341934 -0.83159363 57.15402618 -0.80722046 56.39222717 C-0.75622067 54.79880019 -0.70304147 53.20544178 -0.6479187 51.6121521 C-0.05663088 34.3955153 0.08835017 17.22828385 0 0 Z " fill="#000000" transform="translate(882,124)"/>
<path d="M0 0 C7.58508947 6.51086264 11.35000761 13.99960727 12.421875 23.89453125 C12.61564452 26.50429579 12.72949102 29.09765201 12.82421875 31.71484375 C12.88363603 34.85652575 12.88363603 34.85652575 13.58203125 37.25390625 C14 39 14 39 13 42 C12.91312201 43.54970448 12.8823134 45.10289707 12.88647461 46.6550293 C12.88655014 47.59577805 12.88662567 48.53652679 12.88670349 49.50578308 C12.89186478 50.51836685 12.89702606 51.53095062 12.90234375 52.57421875 C12.9037587 53.61318802 12.90517365 54.65215729 12.90663147 55.72261047 C12.91223344 59.04426948 12.92478628 62.36586133 12.9375 65.6875 C12.94251475 67.93815007 12.9470777 70.18880119 12.95117188 72.43945312 C12.96220351 77.95965837 12.97894357 83.47982439 13 89 C10.79860068 89.17974468 8.59666553 89.3529331 6.39453125 89.5234375 C5.16839111 89.62060059 3.94225098 89.71776367 2.67895508 89.81787109 C-2.25583146 90.0621707 -7.12734656 89.85153167 -12 89 C-13.96822886 87.03177114 -13.66248381 83.65191291 -14 81 C-14.50789062 81.39832031 -15.01578125 81.79664063 -15.5390625 82.20703125 C-26.39642542 90.56354092 -36.52136754 92.26824396 -50 91 C-53.89781094 90.06007073 -57.40043516 88.75183085 -61 87 C-62.02480469 86.57654297 -62.02480469 86.57654297 -63.0703125 86.14453125 C-68.84079895 82.72195528 -72.15932782 75.45060537 -74 69.25 C-74.93586011 65.1195063 -75.2271521 62.11972492 -74 58 C-73.835 57.25234375 -73.67 56.5046875 -73.5 55.734375 C-71.5224521 47.6758673 -67.75598638 41.40347653 -60.69140625 36.8828125 C-46.58568786 29.29143909 -30.49658963 30.53879198 -15 31 C-15.62339904 25.74740017 -16.06402048 22.72322387 -20 19 C-27.64387938 15.44470726 -35.20340041 15.48472385 -43.140625 17.90625 C-51.77977002 20.95484102 -51.77977002 20.95484102 -58 27 C-58.66 27 -59.32 27 -60 27 C-63 21.25 -63 21.25 -63 19 C-63.66 19 -64.32 19 -65 19 C-68 13.25 -68 13.25 -68 11 C-68.66 11 -69.32 11 -70 11 C-70.33 10.01 -70.66 9.02 -71 8 C-69.68 7.34 -68.36 6.68 -67 6 C-67 5.34 -67 4.68 -67 4 C-64.43873936 2.705826 -61.87606642 1.41459216 -59.3125 0.125 C-58.59126953 -0.23980469 -57.87003906 -0.60460937 -57.12695312 -0.98046875 C-40.36966108 -9.39737343 -16.19610008 -10.98541448 0 0 Z M-39 49 C-41.98789578 50.84359527 -43.55577494 52.27308626 -45.375 55.25 C-46.4442866 59.95486106 -46.00442243 64.21943297 -43.625 68.4375 C-39.92883333 71.99150641 -34.89100483 71.26530671 -30.08984375 71.21875 C-25.75734067 70.91202412 -22.86000646 70.00148483 -19 68 C-17.44033992 65.98020421 -17.44033992 65.98020421 -17 64 C-16.34 64 -15.68 64 -15 64 C-14.0439927 59.21996348 -13.67648126 54.8527811 -14 50 C-17.41662695 47.7222487 -18.57439461 47.80474017 -22.5625 47.9375 C-30.77248575 47.56020686 -30.77248575 47.56020686 -39 49 Z " fill="#000000" transform="translate(768,173)"/>
<path d="M0 0 C-0.5794616 4.2114441 -3.06966902 7.21797332 -5.5 10.5625 C-8.75343981 14.99948243 -8.75343981 14.99948243 -11 20 C-14 20 -14 20 -15.5 18.625 C-15.995 18.08875 -16.49 17.5525 -17 17 C-24.57812312 11.94791792 -34.97512251 9.87790156 -44 11 C-46.43209308 11.51709366 -48.644804 12.18080139 -51 13 C-51.41725678 16.37400578 -51.41725678 16.37400578 -51 20 C-47.53252579 22.64742864 -44.11481845 23.64901639 -39.89453125 24.5703125 C-38.17266602 24.95509766 -38.17266602 24.95509766 -36.41601562 25.34765625 C-35.22685547 25.60417969 -34.03769531 25.86070312 -32.8125 26.125 C-30.44354942 26.64634715 -28.07503519 27.16968233 -25.70703125 27.6953125 C-24.6600708 27.92234863 -23.61311035 28.14938477 -22.53442383 28.38330078 C-20 29 -20 29 -18 30 C-17.505 29.01 -17.505 29.01 -17 28 C-17 28.99 -17 29.98 -17 31 C-15.7625 31.2784375 -15.7625 31.2784375 -14.5 31.5625 C-7.15060379 34.58100201 -2.34414018 39.91042282 1 47 C3.32348401 54.78133237 2.17724135 62.62595479 -1 70 C-3.81565712 74.77367156 -6.82138649 78.698394 -12 81 C-12.66 81 -13.32 81 -14 81 C-14.33 81.66 -14.66 82.32 -15 83 C-29.02884753 90.15810842 -48.88768655 88.55108243 -63.78125 85.0625 C-68.92441826 83.36475514 -73.43115112 80.87381455 -78 78 C-78.66 77.67 -79.32 77.34 -80 77 C-80 76.34 -80 75.68 -80 75 C-81.32 74.34 -82.64 73.68 -84 73 C-83.67 72.01 -83.34 71.02 -83 70 C-82.34 70 -81.68 70 -81 70 C-80.34 68.02 -79.68 66.04 -79 64 C-78.34 64 -77.68 64 -77 64 C-76.71125 63.2575 -76.4225 62.515 -76.125 61.75 C-75.17697356 59.43260203 -74.15154089 57.22082885 -73 55 C-69.66659466 56.27574772 -66.5713359 57.73536578 -63.4375 59.4375 C-54.33816519 64.0006679 -42.89906059 67.3068053 -32.79296875 64.35546875 C-29.65786955 63.06207773 -29.65786955 63.06207773 -27 61 C-26.95907063 58.66702567 -26.95758277 56.33294775 -27 54 C-28.32 53.67 -29.64 53.34 -31 53 C-31 52.34 -31 51.68 -31 51 C-35.14093698 50.79029441 -35.14093698 50.79029441 -39 52 C-39 51.34 -39 50.68 -39 50 C-39.83660156 49.92523438 -40.67320312 49.85046875 -41.53515625 49.7734375 C-54.05689425 48.35902191 -67.54125088 45.09381661 -76 35 C-80.34670318 28.74703181 -81.41498834 21.21488158 -80.67578125 13.70703125 C-80.20158515 11.10736045 -79.66606289 8.55665679 -79 6 C-78.34 6 -77.68 6 -77 6 C-76.773125 5.443125 -76.54625 4.88625 -76.3125 4.3125 C-72.19217809 -2.9471148 -64.72748816 -7.40077401 -56.9375 -9.8125 C-36.1341662 -14.41781817 -18.27848117 -9.75583103 0 0 Z " fill="#000000" transform="translate(871,177)"/>
<path d="M0 0 C1.63702881 0.00374634 1.63702881 0.00374634 3.30712891 0.00756836 C5.39420166 0.02122437 5.39420166 0.02122437 7.5234375 0.03515625 C11.9371875 0.05578125 16.3509375 0.07640625 20.8984375 0.09765625 C20.8984375 9.33765625 20.8984375 18.57765625 20.8984375 28.09765625 C29.4784375 28.09765625 38.0584375 28.09765625 46.8984375 28.09765625 C46.8984375 36.01765625 46.8984375 43.93765625 46.8984375 52.09765625 C43.4953125 52.28328125 40.0921875 52.46890625 36.5859375 52.66015625 C35.51690186 52.72146729 34.44786621 52.78277832 33.34643555 52.84594727 C32.50121338 52.88905029 31.65599121 52.93215332 30.78515625 52.9765625 C29.92108154 53.02369385 29.05700684 53.0708252 28.16674805 53.11938477 C25.8984375 53.09765625 25.8984375 53.09765625 22.8984375 52.09765625 C21.22778148 55.43896829 21.7568663 59.19387187 21.765625 62.8671875 C21.76466827 63.74034103 21.76371155 64.61349457 21.76272583 65.5131073 C21.76204453 67.3633125 21.76389531 69.21352008 21.76806641 71.0637207 C21.77339614 73.88823876 21.76812969 76.71259641 21.76171875 79.53710938 C21.76237992 81.33463577 21.76366188 83.13216206 21.765625 84.9296875 C21.76360077 85.77255814 21.76157654 86.61542877 21.75949097 87.48384094 C21.74127067 93.36331675 21.74127067 93.36331675 22.8984375 99.09765625 C26.50775755 101.24775209 29.82775297 101.34263416 33.9609375 101.28515625 C34.98316406 101.27871094 36.00539063 101.27226562 37.05859375 101.265625 C39.49916549 101.12127206 41.56683346 100.79657832 43.8984375 100.09765625 C46.16209488 103.87371354 46.81073881 107.95333537 47.5859375 112.22265625 C47.72837891 112.95097656 47.87082031 113.67929688 48.01757812 114.4296875 C49.02389025 119.84675076 49.02389025 119.84675076 47.8984375 122.09765625 C37.53986013 126.14427806 21.31611179 128.62873212 10.78125 124.04296875 C10.15992188 123.73101562 9.53859375 123.4190625 8.8984375 123.09765625 C8.19460938 122.80632812 7.49078125 122.515 6.765625 122.21484375 C0.57289634 119.49552748 -2.76363942 115.72571944 -5.8515625 109.66015625 C-8.29373136 102.69997501 -8.29228779 95.6466246 -8.41796875 88.3515625 C-8.43874985 87.34044907 -8.45953094 86.32933563 -8.48094177 85.2875824 C-8.54598299 82.07850512 -8.60510977 78.86935057 -8.6640625 75.66015625 C-8.70729098 73.47590368 -8.75090661 71.29165873 -8.79492188 69.10742188 C-8.9016174 63.77091345 -9.00346559 58.43432929 -9.1015625 53.09765625 C-10.55979462 53.07065195 -12.01816925 53.05125838 -13.4765625 53.03515625 C-14.69472656 53.01775391 -14.69472656 53.01775391 -15.9375 53 C-18.15093392 52.95299291 -18.15093392 52.95299291 -20.1015625 54.09765625 C-20.1015625 53.43765625 -20.1015625 52.77765625 -20.1015625 52.09765625 C-21.0915625 52.09765625 -22.0815625 52.09765625 -23.1015625 52.09765625 C-24.43413653 35.20471775 -24.43413653 35.20471775 -23.1015625 28.09765625 C-18.1515625 28.09765625 -13.2015625 28.09765625 -8.1015625 28.09765625 C-8.1015625 19.18765625 -8.1015625 10.27765625 -8.1015625 1.09765625 C-5.33538687 -0.28543156 -3.0913825 -0.01444571 0 0 Z " fill="#000000" transform="translate(643.1015625,138.90234375)"/>
<path d="M0 0 C1.65 0.66 3.3 1.32 5 2 C5 47.54 5 93.08 5 140 C0.71586678 140.7140222 -2.23213545 141.09947518 -6.3984375 140.87890625 C-7.37167969 140.83056641 -8.34492187 140.78222656 -9.34765625 140.73242188 C-10.34667969 140.67634766 -11.34570312 140.62027344 -12.375 140.5625 C-13.39722656 140.51029297 -14.41945313 140.45808594 -15.47265625 140.40429688 C-17.98213196 140.27530513 -20.4911394 140.14037142 -23 140 C-23.76130289 136.61365212 -24.12543813 133.48820715 -24.12698364 130.01992798 C-24.12980347 129.04186188 -24.13262329 128.06379578 -24.13552856 127.05609131 C-24.13350433 125.99424622 -24.1314801 124.93240112 -24.12939453 123.83837891 C-24.13114685 122.71082184 -24.13289917 121.58326477 -24.13470459 120.42153931 C-24.13910874 116.68986475 -24.13618815 112.95823756 -24.1328125 109.2265625 C-24.13348642 106.62405386 -24.13445719 104.02154529 -24.13571167 101.41903687 C-24.13753071 95.95659881 -24.1351367 90.49417428 -24.13037109 85.03173828 C-24.12495623 78.75340575 -24.12667187 72.47510583 -24.1321975 66.19677413 C-24.13732278 60.12649272 -24.13672778 54.05622552 -24.13381577 47.98594284 C-24.13315287 45.41937633 -24.13395243 42.85280897 -24.13629532 40.28624344 C-24.14541551 27.47539723 -24.08140636 14.76961572 -23 2 C-15.41 2 -7.82 2 0 2 C0 1.34 0 0.68 0 0 Z " fill="#000000" transform="translate(607,122)"/>
<path d="M0 0 C0.99 0.33 1.98 0.66 3 1 C2.01 1.33 1.02 1.66 0 2 C0 1.34 0 0.68 0 0 Z " fill="#020202" transform="translate(182,366)"/>
<path d="M0 0 C4 1 4 1 4 1 Z " fill="#020202" transform="translate(736,242)"/>
<path d="M0 0 C0.99 0.495 0.99 0.495 2 1 C1.01 1.495 1.01 1.495 0 2 C0 1.34 0 0.68 0 0 Z " fill="#020202" transform="translate(182,342)"/>
<path d="M0 0 C3 1 3 1 3 1 Z " fill="#020202" transform="translate(514,232)"/>
<path d="M0 0 C3 1 3 1 3 1 Z " fill="#020202" transform="translate(503,232)"/>
<path d="M0 0 C3 1 3 1 3 1 Z " fill="#020202" transform="translate(494,232)"/>
<path d="" fill="#020202" transform="translate(0,0)"/>
<path d="M0 0 C0.66 0.66 1.32 1.32 2 2 C1.34 2 0.68 2 0 2 C0 1.34 0 0.68 0 0 Z " fill="#020202" transform="translate(352,212)"/>
<path d="M0 0 C3 1 3 1 3 1 Z " fill="#020202" transform="translate(625,192)"/>
<path d="" fill="#020202" transform="translate(0,0)"/>
<path d="" fill="#020202" transform="translate(0,0)"/>
<path d="" fill="#020202" transform="translate(0,0)"/>
<path d="M0 0 C3 1 3 1 3 1 Z " fill="#020202" transform="translate(119,89)"/>
<path d="" fill="#020202" transform="translate(0,0)"/>
<path d="" fill="#020202" transform="translate(0,0)"/>
<path d="" fill="#020202" transform="translate(0,0)"/>
<path d="M0 0 C2 1 2 1 2 1 Z " fill="#020202" transform="translate(167,340)"/>
<path d="M0 0 C2 1 2 1 2 1 Z " fill="#020202" transform="translate(170,324)"/>
<path d="M0 0 C2 1 2 1 2 1 Z " fill="#020202" transform="translate(314,305)"/>
<path d="M0 0 C2 1 2 1 2 1 Z " fill="#020202" transform="translate(522,232)"/>
<path d="" fill="#020202" transform="translate(0,0)"/>
<path d="M0 0 C2 1 2 1 2 1 Z " fill="#020202" transform="translate(751,223)"/>
<path d="M0 0 C2 1 2 1 2 1 Z " fill="#020202" transform="translate(338,213)"/>
<path d="" fill="#020202" transform="translate(0,0)"/>
<path d="" fill="#020202" transform="translate(0,0)"/>
<path d="" fill="#020202" transform="translate(0,0)"/>
<path d="" fill="#020202" transform="translate(0,0)"/>
<path d="" fill="#020202" transform="translate(0,0)"/>
<path d="M0 0 C2 1 2 1 2 1 Z " fill="#020202" transform="translate(631,192)"/>
<path d="" fill="#020202" transform="translate(0,0)"/>
<path d="" fill="#020202" transform="translate(0,0)"/>
<path d="M0 0 C2 1 2 1 2 1 Z " fill="#020202" transform="translate(199,132)"/>
<path d="" fill="#020202" transform="translate(0,0)"/>
<path d="" fill="#020202" transform="translate(0,0)"/>
<path d="" fill="#020202" transform="translate(0,0)"/>
<path d="" fill="#020202" transform="translate(0,0)"/>
<path d="" fill="#020202" transform="translate(0,0)"/>
<path d="" fill="#020202" transform="translate(0,0)"/>
<path d="" fill="#020202" transform="translate(0,0)"/>
<path d="" fill="#020202" transform="translate(0,0)"/>
<path d="" fill="#020202" transform="translate(0,0)"/>
<path d="" fill="#020202" transform="translate(0,0)"/>
<path d="" fill="#020202" transform="translate(0,0)"/>
<path d="" fill="#020202" transform="translate(0,0)"/>
<path d="" fill="#020202" transform="translate(0,0)"/>
<path d="" fill="#020202" transform="translate(0,0)"/>
<path d="" fill="#020202" transform="translate(0,0)"/>
<path d="" fill="#020202" transform="translate(0,0)"/>
<path d="" fill="#020202" transform="translate(0,0)"/>
<path d="" fill="#020202" transform="translate(0,0)"/>
<path d="" fill="#020202" transform="translate(0,0)"/>
<path d="" fill="#020202" transform="translate(0,0)"/>
<path d="" fill="#020202" transform="translate(0,0)"/>
<path d="" fill="#020202" transform="translate(0,0)"/>
<path d="" fill="#020202" transform="translate(0,0)"/>
<path d="" fill="#020202" transform="translate(0,0)"/>
<path d="" fill="#020202" transform="translate(0,0)"/>
<path d="" fill="#020202" transform="translate(0,0)"/>
<path d="" fill="#020202" transform="translate(0,0)"/>
<path d="" fill="#020202" transform="translate(0,0)"/>
<path d="" fill="#020202" transform="translate(0,0)"/>
<path d="" fill="#020202" transform="translate(0,0)"/>
<path d="" fill="#020202" transform="translate(0,0)"/>
<path d="" fill="#020202" transform="translate(0,0)"/>
<path d="" fill="#020202" transform="translate(0,0)"/>
<path d="" fill="#020202" transform="translate(0,0)"/>
<path d="" fill="#020202" transform="translate(0,0)"/>
<path d="" fill="#020202" transform="translate(0,0)"/>
<path d="" fill="#020202" transform="translate(0,0)"/>
<path d="" fill="#020202" transform="translate(0,0)"/>
<path d="" fill="#020202" transform="translate(0,0)"/>
<path d="" fill="#020202" transform="translate(0,0)"/>
<path d="" fill="#020202" transform="translate(0,0)"/>
<path d="" fill="#020202" transform="translate(0,0)"/>
<path d="" fill="#020202" transform="translate(0,0)"/>
<path d="" fill="#020202" transform="translate(0,0)"/>
<path d="" fill="#020202" transform="translate(0,0)"/>
<path d="" fill="#020202" transform="translate(0,0)"/>
<path d="" fill="#020202" transform="translate(0,0)"/>
<path d="" fill="#020202" transform="translate(0,0)"/>
<path d="" fill="#020202" transform="translate(0,0)"/>
<path d="" fill="#020202" transform="translate(0,0)"/>
<path d="" fill="#020202" transform="translate(0,0)"/>
<path d="" fill="#020202" transform="translate(0,0)"/>
<path d="" fill="#020202" transform="translate(0,0)"/>
<path d="" fill="#020202" transform="translate(0,0)"/>
<path d="" fill="#020202" transform="translate(0,0)"/>
<path d="" fill="#020202" transform="translate(0,0)"/>
<path d="" fill="#020202" transform="translate(0,0)"/>
<path d="" fill="#020202" transform="translate(0,0)"/>
<path d="" fill="#020202" transform="translate(0,0)"/>
<path d="" fill="#020202" transform="translate(0,0)"/>
<path d="" fill="#020202" transform="translate(0,0)"/>
<path d="" fill="#020202" transform="translate(0,0)"/>
<path d="" fill="#020202" transform="translate(0,0)"/>
<path d="" fill="#020202" transform="translate(0,0)"/>
<path d="" fill="#020202" transform="translate(0,0)"/>
<path d="" fill="#020202" transform="translate(0,0)"/>
<path d="" fill="#020202" transform="translate(0,0)"/>
<path d="" fill="#020202" transform="translate(0,0)"/>
<path d="" fill="#020202" transform="translate(0,0)"/>
<path d="" fill="#020202" transform="translate(0,0)"/>
<path d="" fill="#020202" transform="translate(0,0)"/>
<path d="" fill="#020202" transform="translate(0,0)"/>
<path d="" fill="#020202" transform="translate(0,0)"/>
<path d="" fill="#020202" transform="translate(0,0)"/>
<path d="" fill="#020202" transform="translate(0,0)"/>
<path d="" fill="#020202" transform="translate(0,0)"/>
<path d="" fill="#020202" transform="translate(0,0)"/>
<path d="" fill="#020202" transform="translate(0,0)"/>
<path d="" fill="#020202" transform="translate(0,0)"/>
<path d="" fill="#020202" transform="translate(0,0)"/>
<path d="" fill="#020202" transform="translate(0,0)"/>
<path d="" fill="#020202" transform="translate(0,0)"/>
<path d="" fill="#020202" transform="translate(0,0)"/>
<path d="" fill="#020202" transform="translate(0,0)"/>
<path d="" fill="#020202" transform="translate(0,0)"/>
<path d="" fill="#020202" transform="translate(0,0)"/>
<path d="" fill="#020202" transform="translate(0,0)"/>
<path d="" fill="#020202" transform="translate(0,0)"/>
<path d="" fill="#020202" transform="translate(0,0)"/>
<path d="" fill="#020202" transform="translate(0,0)"/>
<path d="" fill="#020202" transform="translate(0,0)"/>
<path d="" fill="#020202" transform="translate(0,0)"/>
<path d="" fill="#020202" transform="translate(0,0)"/>
<path d="" fill="#020202" transform="translate(0,0)"/>
<path d="" fill="#020202" transform="translate(0,0)"/>
<path d="" fill="#020202" transform="translate(0,0)"/>
<path d="" fill="#020202" transform="translate(0,0)"/>
<path d="" fill="#020202" transform="translate(0,0)"/>
<path d="" fill="#020202" transform="translate(0,0)"/>
<path d="" fill="#020202" transform="translate(0,0)"/>
<path d="" fill="#020202" transform="translate(0,0)"/>
<path d="" fill="#020202" transform="translate(0,0)"/>
<path d="" fill="#020202" transform="translate(0,0)"/>
<path d="" fill="#020202" transform="translate(0,0)"/>
<path d="" fill="#020202" transform="translate(0,0)"/>
<path d="" fill="#020202" transform="translate(0,0)"/>
<path d="" fill="#020202" transform="translate(0,0)"/>
<path d="" fill="#020202" transform="translate(0,0)"/>
<path d="" fill="#020202" transform="translate(0,0)"/>
<path d="" fill="#020202" transform="translate(0,0)"/>
<path d="" fill="#020202" transform="translate(0,0)"/>
<path d="" fill="#020202" transform="translate(0,0)"/>
<path d="" fill="#020202" transform="translate(0,0)"/>
<path d="" fill="#020202" transform="translate(0,0)"/>
<path d="" fill="#020202" transform="translate(0,0)"/>
<path d="" fill="#020202" transform="translate(0,0)"/>
<path d="" fill="#020202" transform="translate(0,0)"/>
<path d="" fill="#020202" transform="translate(0,0)"/>
<path d="" fill="#020202" transform="translate(0,0)"/>
<path d="" fill="#020202" transform="translate(0,0)"/>
<path d="" fill="#020202" transform="translate(0,0)"/>
<path d="" fill="#020202" transform="translate(0,0)"/>
<path d="" fill="#020202" transform="translate(0,0)"/>
<path d="" fill="#020202" transform="translate(0,0)"/>
<path d="" fill="#020202" transform="translate(0,0)"/>
<path d="" fill="#020202" transform="translate(0,0)"/>
<path d="" fill="#020202" transform="translate(0,0)"/>
<path d="" fill="#020202" transform="translate(0,0)"/>
<path d="" fill="#020202" transform="translate(0,0)"/>
<path d="" fill="#020202" transform="translate(0,0)"/>
<path d="" fill="#020202" transform="translate(0,0)"/>
<path d="" fill="#020202" transform="translate(0,0)"/>
<path d="" fill="#020202" transform="translate(0,0)"/>
<path d="" fill="#020202" transform="translate(0,0)"/>
<path d="" fill="#020202" transform="translate(0,0)"/>
<path d="" fill="#020202" transform="translate(0,0)"/>
<path d="" fill="#020202" transform="translate(0,0)"/>
<path d="" fill="#020202" transform="translate(0,0)"/>
<path d="" fill="#020202" transform="translate(0,0)"/>
<path d="" fill="#020202" transform="translate(0,0)"/>
<path d="" fill="#020202" transform="translate(0,0)"/>
<path d="" fill="#020202" transform="translate(0,0)"/>
<path d="" fill="#020202" transform="translate(0,0)"/>
<path d="" fill="#020202" transform="translate(0,0)"/>
<path d="" fill="#020202" transform="translate(0,0)"/>
<path d="" fill="#020202" transform="translate(0,0)"/>
<path d="" fill="#020202" transform="translate(0,0)"/>
<path d="" fill="#020202" transform="translate(0,0)"/>
<path d="" fill="#020202" transform="translate(0,0)"/>
<path d="" fill="#020202" transform="translate(0,0)"/>
<path d="" fill="#020202" transform="translate(0,0)"/>
<path d="" fill="#020202" transform="translate(0,0)"/>
<path d="" fill="#020202" transform="translate(0,0)"/>
<path d="" fill="#020202" transform="translate(0,0)"/>
<path d="" fill="#020202" transform="translate(0,0)"/>
<path d="" fill="#020202" transform="translate(0,0)"/>
<path d="" fill="#020202" transform="translate(0,0)"/>
<path d="" fill="#020202" transform="translate(0,0)"/>
<path d="" fill="#020202" transform="translate(0,0)"/>
<path d="" fill="#020202" transform="translate(0,0)"/>
<path d="" fill="#020202" transform="translate(0,0)"/>
<path d="" fill="#020202" transform="translate(0,0)"/>
<path d="" fill="#020202" transform="translate(0,0)"/>
<path d="" fill="#020202" transform="translate(0,0)"/>
<path d="" fill="#020202" transform="translate(0,0)"/>
<path d="" fill="#020202" transform="translate(0,0)"/>
<path d="" fill="#020202" transform="translate(0,0)"/>
<path d="" fill="#020202" transform="translate(0,0)"/>
<path d="" fill="#020202" transform="translate(0,0)"/>
<path d="" fill="#020202" transform="translate(0,0)"/>
<path d="" fill="#020202" transform="translate(0,0)"/>
<path d="" fill="#020202" transform="translate(0,0)"/>
<path d="" fill="#020202" transform="translate(0,0)"/>
<path d="" fill="#020202" transform="translate(0,0)"/>
<path d="" fill="#020202" transform="translate(0,0)"/>
<path d="" fill="#020202" transform="translate(0,0)"/>
<path d="" fill="#020202" transform="translate(0,0)"/>
<path d="" fill="#020202" transform="translate(0,0)"/>
<path d="" fill="#020202" transform="translate(0,0)"/>
<path d="" fill="#020202" transform="translate(0,0)"/>
<path d="" fill="#020202" transform="translate(0,0)"/>
<path d="" fill="#020202" transform="translate(0,0)"/>
<path d="" fill="#020202" transform="translate(0,0)"/>
<path d="" fill="#020202" transform="translate(0,0)"/>
<path d="" fill="#020202" transform="translate(0,0)"/>
<path d="" fill="#020202" transform="translate(0,0)"/>
<path d="" fill="#020202" transform="translate(0,0)"/>
<path d="" fill="#020202" transform="translate(0,0)"/>
<path d="" fill="#020202" transform="translate(0,0)"/>
<path d="" fill="#020202" transform="translate(0,0)"/>
<path d="" fill="#020202" transform="translate(0,0)"/>
<path d="" fill="#020202" transform="translate(0,0)"/>
<path d="" fill="#020202" transform="translate(0,0)"/>
<path d="" fill="#020202" transform="translate(0,0)"/>
<path d="" fill="#020202" transform="translate(0,0)"/>
<path d="" fill="#020202" transform="translate(0,0)"/>
<path d="" fill="#020202" transform="translate(0,0)"/>
<path d="" fill="#020202" transform="translate(0,0)"/>
<path d="" fill="#020202" transform="translate(0,0)"/>
<path d="" fill="#020202" transform="translate(0,0)"/>
<path d="" fill="#020202" transform="translate(0,0)"/>
<path d="" fill="#020202" transform="translate(0,0)"/>
<path d="" fill="#020202" transform="translate(0,0)"/>
<path d="" fill="#020202" transform="translate(0,0)"/>
<path d="" fill="#020202" transform="translate(0,0)"/>
<path d="" fill="#020202" transform="translate(0,0)"/>
<path d="" fill="#020202" transform="translate(0,0)"/>
<path d="" fill="#020202" transform="translate(0,0)"/>
<path d="" fill="#020202" transform="translate(0,0)"/>
<path d="" fill="#020202" transform="translate(0,0)"/>
<path d="" fill="#020202" transform="translate(0,0)"/>
<path d="" fill="#020202" transform="translate(0,0)"/>
<path d="" fill="#020202" transform="translate(0,0)"/>
<path d="" fill="#020202" transform="translate(0,0)"/>
</svg>
